<?xml version="1.0" standalone="no"?><!DOCTYPE svg PUBLIC "-//W3C//DTD SVG 1.1//EN" "http://www.w3.org/Graphics/SVG/1.1/DTD/svg11.dtd"><svg t="1729847547295" class="icon" viewBox="0 0 1024 1024" version="1.1" xmlns="http://www.w3.org/2000/svg" p-id="9777" xmlns:xlink="http://www.w3.org/1999/xlink" width="256" height="256"><path d="M499.858286 2.048a37.302857 37.302857 0 0 1 24.137143 0l400.457142 137.216c15.798857 5.412571 26.404571 20.699429 26.404572 37.888v396.434286c0 45.056-20.48 96.841143-60.854857 153.746285-31.524571 44.617143-75.849143 93.110857-128.146286 140.288a1132.397714 1132.397714 0 0 1-139.483429 108.251429C547.913143 1024 520.923429 1024 512 1024c-8.850286 0-35.913143 0-110.592-49.005714-44.617143-29.257143-94.061714-68.169143-139.410286-109.421715-52.150857-47.469714-96.402286-95.963429-127.926857-140.288C93.622857 668.452571 73.142857 617.325714 73.142857 573.44v-396.434286c0-17.115429 10.605714-32.402286 26.331429-37.814857zM512 81.846857L149.942857 205.970286v367.616c0 50.907429 60.708571 138.313143 158.427429 228.205714 41.472 38.107429 87.04 74.386286 128.438857 102.107429 45.056 30.208 68.754286 39.131429 75.190857 40.374857 6.436571-1.170286 30.134857-9.947429 75.044571-39.497143a1078.125714 1078.125714 0 0 0 128.438858-100.937143c47.030857-42.861714 86.454857-86.308571 113.883428-125.513143 36.937143-52.662857 44.617143-86.016 44.617143-104.813714V205.970286l-362.057143-124.123429z m-0.950857 151.917714a37.522286 37.522286 0 0 1 53.833143-8.045714c16.969143 13.165714 20.48 38.107429 7.753143 55.734857l-118.491429 164.571429h192.365714c14.628571 0 27.940571 8.557714 34.450286 22.089143a41.106286 41.106286 0 0 1-3.876571 41.837714L480.694857 777.508571a37.814857 37.814857 0 0 1-66.121143-8.777142 41.106286 41.106286 0 0 1 4.973715-39.497143l149.357714-203.483429H377.417143a38.326857 38.326857 0 0 1-34.377143-22.016 41.106286 41.106286 0 0 1 3.657143-41.691428z" p-id="9778"></path></svg>