<?xml version="1.0" standalone="no"?><!DOCTYPE svg PUBLIC "-//W3C//DTD SVG 1.1//EN" "http://www.w3.org/Graphics/SVG/1.1/DTD/svg11.dtd"><svg t="1725096795833" class="icon" viewBox="0 0 1303 1024" version="1.1" xmlns="http://www.w3.org/2000/svg" p-id="1272" xmlns:xlink="http://www.w3.org/1999/xlink" width="254.4921875" height="200"><path d="M1189.486 540.388h-58.823c-6.33 0-12.38 0.744-18.336 1.582V406.733C1112.327 182.425 905.61 0 651.517 0 397.427 0 190.71 182.425 190.71 406.733V541.97a125.185 125.185 0 0 0-18.336-1.582h-58.637C50.818 540.388 0 585.9 0 642.024v280.153c0 56.03 50.911 101.544 113.643 101.637h58.73c62.732 0 113.55-45.606 113.736-101.637V406.64c0-177.12 163.81-321.291 365.409-321.291 201.505 0 365.501 144.171 365.501 321.291v515.537c0 56.124 50.912 101.544 113.55 101.637h58.823c62.732 0 113.55-45.606 113.644-101.637V642.024c0-56.123-50.912-101.636-113.55-101.636zM186.148 791.128v125c0 8.097-8.004 14.612-17.87 14.612h-57.334c-9.866 0-17.87-6.515-17.87-14.613V666.131c0-8.098 8.004-14.613 17.87-14.613h57.334c9.866 0 17.87 6.515 17.87 14.613v124.998z m1023.814 125c0 8.097-8.005 14.612-17.87 14.612h-57.334c-9.866 0-17.87-6.515-17.87-14.613V666.131c0-8.098 8.004-14.613 17.87-14.613h57.334c9.865 0 17.87 6.515 17.87 14.613v249.996zM887.74 620.523H769.908a44.117 44.117 0 0 0-40.022 26.713l-13.03 29.318-72.505-182.611a45.979 45.979 0 0 0-41.51-28.574 44.396 44.396 0 0 0-40.581 30.156l-44.676 124.998H416.506a45.42 45.42 0 0 0-44.21 46.537c0 25.689 19.825 46.537 44.21 46.537h131.607c18.428 0 34.902-12.1 41.418-30.156l16.195-45.513 67.944 171.163c6.794 16.94 22.337 28.109 39.835 28.574h0.93a44.117 44.117 0 0 0 40.023-26.712l43.465-97.356h89.817a45.513 45.513 0 0 0 43-46.537 45.513 45.513 0 0 0-43-46.537z" fill="#707070" p-id="1273"></path></svg>