<?xml version="1.0" standalone="no"?><!DOCTYPE svg PUBLIC "-//W3C//DTD SVG 1.1//EN" "http://www.w3.org/Graphics/SVG/1.1/DTD/svg11.dtd"><svg t="1717577669209" class="icon" viewBox="0 0 1024 1024" version="1.1" xmlns="http://www.w3.org/2000/svg" p-id="1494" xmlns:xlink="http://www.w3.org/1999/xlink" width="200" height="200"><path d="M768 512c-143.36 0-256 112.64-256 256s112.64 256 256 256 256-112.64 256-256-112.64-256-256-256z m0 455.68c-107.52 0-199.68-87.04-199.68-199.68 0-107.52 87.04-199.68 199.68-199.68 107.52 0 199.68 87.04 199.68 199.68 0 107.52-87.04 199.68-199.68 199.68zM199.68 737.28h256c0 20.48 0 35.84 5.12 56.32H199.68c-15.36 0-30.72-10.24-30.72-30.72 5.12-10.24 15.36-25.6 30.72-25.6zM199.68 624.64c-15.36 0-30.72-10.24-30.72-30.72 0-15.36 10.24-30.72 30.72-30.72H512c-15.36 15.36-25.6 35.84-35.84 56.32H199.68zM199.68 286.72c-15.36 0-25.6-15.36-25.6-30.72s10.24-30.72 30.72-30.72h112.64c15.36 0 30.72 10.24 30.72 30.72 0 15.36-10.24 30.72-30.72 30.72H199.68zM624.64 424.96c0 15.36-10.24 30.72-30.72 30.72H199.68c-15.36 0-30.72-10.24-30.72-30.72 0-15.36 10.24-30.72 30.72-30.72h399.36c15.36 5.12 25.6 15.36 25.6 30.72z" fill="#707070" p-id="1495"></path><path d="M798.72 460.8V296.96L496.64 0H112.64C51.2 0 0 51.2 0 112.64v793.6C0 972.8 51.2 1024 112.64 1024h481.28c-20.48-15.36-40.96-35.84-56.32-56.32H112.64c-30.72 0-56.32-25.6-56.32-56.32V112.64c0-15.36 5.12-30.72 15.36-40.96 10.24-10.24 25.6-15.36 40.96-15.36h343.04v286.72h286.72v112.64c15.36 0 35.84 0 56.32 5.12zM512 286.72V107.52l179.2 174.08-179.2 5.12zM798.72 808.96h-56.32v-56.32h56.32v56.32zM911.36 808.96h-56.32v-56.32h56.32v56.32z" fill="#707070" p-id="1496"></path><path d="M691.2 808.96h-56.32v-56.32h56.32v56.32z" fill="#707070" p-id="1497"></path></svg>