<?xml version="1.0" standalone="no"?><!DOCTYPE svg PUBLIC "-//W3C//DTD SVG 1.1//EN" "http://www.w3.org/Graphics/SVG/1.1/DTD/svg11.dtd"><svg t="1716273778111" class="icon" viewBox="0 0 1092 1024" version="1.1" xmlns="http://www.w3.org/2000/svg" p-id="1299" xmlns:xlink="http://www.w3.org/1999/xlink" width="273" height="256"><path d="M1094.54222187 985.3155552H2.2755552c-21.84533333 0-36.40888853 14.5635552-36.40888853 36.4088896s14.5635552 36.40888853 36.40888853 36.40888853h1092.26666667c21.84533333 0 36.40888853-14.5635552 36.4088896-36.40888853s-14.5635552-36.40888853-36.4088896-36.4088896zM329.9555552 854.2435552c36.40888853 36.40888853 80.0995552 58.25422187 131.072 58.25422293s94.66311147-21.84533333 131.072-50.9724448l80.09955627-80.0995552 50.97244373-50.9724448 283.98933333-283.98933333c29.12711147-36.40888853 50.9724448-80.0995552 50.9724448-131.072s-21.84533333-94.66311147-58.25422186-131.072L846.96177813 31.40266667c-72.81777813-72.81777813-189.32622187-72.81777813-254.86222293 0L177.03822187 446.464c-72.81777813 72.81777813-72.81777813 189.32622187 0 254.86222187L329.9555552 854.2435552zM228.01066667 497.4364448l415.06133333-415.06133333c21.84533333-21.84533333 50.9724448-29.12711147 80.0995552-29.12711147 29.12711147 0 58.25422187 7.28177813 80.09955627 29.12711147l152.91733333 152.91733333c14.5635552 21.84533333 29.12711147 50.9724448 29.1271104 80.0995552 0 29.12711147-14.5635552 58.25422187-29.1271104 80.0995552l-291.27111147 283.98933333-305.83466666-313.11644373-50.9724448 50.97244373 305.83466666 305.83466667-80.0995552 80.09955627c-43.69066667 43.69066667-116.5084448 43.69066667-152.91733333 0L228.01066667 650.35377813c-43.69066667-43.69066667-43.69066667-109.22666667 0-152.91733333z" fill="#707070" p-id="1300"></path></svg>