<?xml version="1.0" standalone="no"?><!DOCTYPE svg PUBLIC "-//W3C//DTD SVG 1.1//EN" "http://www.w3.org/Graphics/SVG/1.1/DTD/svg11.dtd"><svg t="1717578950195" class="icon" viewBox="0 0 1024 1024" version="1.1" xmlns="http://www.w3.org/2000/svg" p-id="1922" xmlns:xlink="http://www.w3.org/1999/xlink" width="200" height="200"><path d="M876.08888889 1020.98488889H148.42311111a36.40888889 36.40888889 0 0 1-36.40888889-36.40888889V640.19342222c0-22.97173333 18.79608889-42.20017778 41.76782223-41.76782222a40.96 40.96 0 0 1 40.15217777 40.96v299.67928889H830.57777778V640.19342222c0-22.97173333 18.79608889-42.20017778 41.75644444-41.76782222a40.96 40.96 0 0 1 40.16355556 40.96v345.1904a36.40888889 36.40888889 0 0 1-36.40888889 36.40888889zM40.96 576.85333333a40.80071111 40.80071111 0 0 1-28.37617778-11.37777778 40.96 40.96 0 0 1-1.13777777-57.91288888l475.45457777-494.93333334a36.40888889 36.40888889 0 0 1 52.45155556 0l473.1904 490.38222222a40.96 40.96 0 0 1-1.03537778 57.92426667 40.96 40.96 0 0 1-57.92426667-1.03537777l-440.32-456.36266667-442.70933333 460.8A40.83484445 40.83484445 0 0 1 40.96 576.85333333z" fill="#707070" p-id="1923"></path></svg>