<?xml version="1.0" standalone="no"?><!DOCTYPE svg PUBLIC "-//W3C//DTD SVG 1.1//EN" "http://www.w3.org/Graphics/SVG/1.1/DTD/svg11.dtd"><svg t="1717136018553" class="icon" viewBox="0 0 1024 1024" version="1.1" xmlns="http://www.w3.org/2000/svg" p-id="1210" xmlns:xlink="http://www.w3.org/1999/xlink" width="200" height="200"><path d="M929.266 785.115H514.914c-16.568 0-30-13.432-30-30s13.432-30 30-30h414.352c12.877 0 23.354-10.476 23.354-23.353V126.844c0-12.877-10.477-23.353-23.354-23.353H99.739c-12.877 0-23.353 10.476-23.353 23.353v574.919c0 12.877 10.476 23.353 23.353 23.353h86.988c16.568 0 30 13.432 30 30s-13.432 30-30 30H99.739c-45.961 0-83.353-37.392-83.353-83.353V126.844c0-45.961 37.392-83.353 83.353-83.353h829.526c45.961 0 83.354 37.392 83.354 83.353v574.919c0 45.961-37.392 83.352-83.353 83.352z" fill="#707070" p-id="1211"></path><path d="M484.947 755.026l60 0.138-0.402 174.603-60-0.138z" fill="#707070" p-id="1212"></path><path d="M738.259 982.997h-446.69c-16.569 0-30-13.432-30-30s13.431-30 30-30h446.689c16.568 0 30 13.432 30 30s-13.431 30-29.999 30zM186.712 785.116a29.88 29.88 0 0 1-19.342-7.081c-12.658-10.69-14.253-29.618-3.563-42.276L496.819 341.45c10.691-12.659 29.619-14.253 42.276-3.563 12.658 10.69 14.254 29.619 3.563 42.277L209.647 774.472c-5.934 7.026-14.406 10.644-22.935 10.644z" fill="#707070" p-id="1213"></path><path d="M599.782 484.451c-8.668 0-17.265-3.736-23.197-10.956l-80.025-97.396c-10.519-12.802-8.667-31.706 4.134-42.225 12.803-10.519 31.707-8.666 42.225 4.134l80.025 97.396c10.518 12.802 8.667 31.706-4.135 42.225a29.879 29.879 0 0 1-19.027 6.822z" fill="#707070" p-id="1214"></path><path d="M599.754 484.45a29.888 29.888 0 0 1-19.917-7.575c-12.385-11.005-13.503-29.967-2.498-42.353l107.298-120.748c11.008-12.385 29.969-13.503 42.354-2.498s13.503 29.967 2.498 42.353L622.19 474.377c-5.927 6.67-14.164 10.073-22.436 10.073z" fill="#707070" p-id="1215"></path><path d="M772.917 349.363c-60.668 0-110.025-49.357-110.025-110.026s49.357-110.026 110.025-110.026c60.669 0 110.026 49.357 110.026 110.026s-49.357 110.026-110.026 110.026z m0-160.052c-27.584 0-50.025 22.441-50.025 50.026s22.441 50.026 50.025 50.026c27.585 0 50.026-22.441 50.026-50.026s-22.441-50.026-50.026-50.026z" fill="#707070" p-id="1216"></path></svg>