<?xml version="1.0" standalone="no"?><!DOCTYPE svg PUBLIC "-//W3C//DTD SVG 1.1//EN" "http://www.w3.org/Graphics/SVG/1.1/DTD/svg11.dtd"><svg t="1717577459629" class="icon" viewBox="0 0 1024 1024" version="1.1" xmlns="http://www.w3.org/2000/svg" p-id="1491" xmlns:xlink="http://www.w3.org/1999/xlink" width="200" height="200"><path d="M985.31555555 584.81777778h-109.59075555V345.12592555l98.78945223-98.54672555c14.19946667-14.19946667 14.19946667-37.25843001 0.1213622-51.45789667-14.32083001-14.32083001-37.37979221-14.19946667-51.57925888-0.12136221L824.26690333 293.54666667H199.36900779l-98.91081558-98.54672555c-14.19946667-14.19946667-37.25843001-14.19946667-51.45789554 0.12136221-14.19946667 14.19946667-14.19946667 37.25843001 0.12136221 51.45789667l99.15354112 98.91081443V584.81777778H38.68444445c-20.14625223 0-36.40888889 16.26263666-36.4088889 36.40888889s16.26263666 36.40888889 36.4088889 36.40888888h109.59075555v33.73890333c-0.24272555 1.6990811-0.36408889 3.39816334-0.36408889 5.09724445 0 57.16195555 15.41309667 110.92574777 42.71976334 158.13594112l-104.73623779 104.8576c-14.19946667 14.19946667-14.19946667 37.25843001 0 51.45789667 7.16041443 7.16041443 16.384 10.67994112 25.72894891 10.67993998s18.68989667-3.51952555 25.72894776-10.67993998l96.84764445-96.96900779c66.87099221 72.93914112 166.50998557 119.42115555 277.79982222 119.42115556 111.28983666 0 211.05019221-46.48201443 277.79982222-119.42115556l96.96900779 97.09037c7.16041443 7.16041443 16.384 10.67994112 25.72894777 10.67994112s18.68989667-3.51952555 25.72894777-10.67994112c14.19946667-14.19946667 14.19946667-37.25843001 0-51.45789554l-104.8576-104.97896334c27.18530333-47.21019221 42.5984-100.97398557 42.5984-158.13594112 0-1.6990811-0.12136334-3.39816334-0.36408889-5.09724445V657.63555555H985.31555555c20.14625223 0 36.40888889-16.26263666 36.4088889-36.40888888s-16.26263666-36.40888889-36.4088889-36.40888889zM547.92343666 958.61570333c0.36408889-1.94180779 0.48545223-3.88361443 0.48545223-5.94678443V548.40888889c0-20.14625223-16.26263666-36.40888889-36.40888889-36.40888889s-36.40888889 16.26263666-36.40888889 36.40888889v404.38139221c0 2.06316999 0.12136334 4.00497778 0.48545223 5.94678557-141.99466667-15.89854777-252.67768889-124.88248889-255.34767445-257.2894811 0.24272555-1.5777189 0.36408889-3.15543666 0.36408889-4.73315556V366.36444445h581.81404444v330.22862222c0 1.5777189 0.12136334 3.15543666 0.24272555 4.73315555-2.54862222 132.40699221-113.23164445 241.39093333-255.22631111 257.28948111z" fill="#707070" p-id="1492"></path><path d="M329.95555555 220.72888889h364.0888889c11.65084445 0 22.45214777-5.46133333 29.36983665-14.8062811 6.79632555-9.34494777 8.85949667-21.3598811 5.46133333-32.40391112C696.83579221 71.08835555 609.57582222 2.27555555 512 2.27555555c-97.69718557 0-184.83579221 68.8128-216.75425223 171.24314112-3.51952555 11.04403001-1.45635555 23.05896334 5.46133333 32.40391112 6.79632555 9.34494777 17.59763001 14.8062811 29.24847445 14.8062811z m182.04444445-145.63555556c49.88017778 0 96.11946667 27.9134811 125.24657778 72.81777778H386.75342222c29.12711111-44.90429667 75.3664-72.81777778 125.24657778-72.81777778z" fill="#707070" p-id="1493"></path></svg>