<?xml version="1.0" standalone="no"?><!DOCTYPE svg PUBLIC "-//W3C//DTD SVG 1.1//EN" "http://www.w3.org/Graphics/SVG/1.1/DTD/svg11.dtd"><svg t="1717577754048" class="icon" viewBox="0 0 1024 1024" version="1.1" xmlns="http://www.w3.org/2000/svg" p-id="1554" xmlns:xlink="http://www.w3.org/1999/xlink" width="200" height="200"><path d="M512 674.304c-22.528 0-45.056-6.656-62.976-18.432L82.432 406.016c-24.064-16.384-38.4-41.472-38.4-68.608 0-27.136 14.336-51.712 38.4-68.608L449.536 19.968c35.328-24.064 89.6-24.064 124.928 0L942.08 269.312c24.064 16.384 38.4 41.472 38.4 68.608s-14.336 51.712-38.4 68.608l-367.616 249.344c-17.408 11.776-39.424 18.432-62.464 18.432z m0-614.912c-7.68 0-14.848 2.048-20.48 6.144L123.392 315.392c-8.192 5.632-12.8 13.824-12.8 22.528 0 9.216 4.608 17.408 12.8 22.528l367.616 249.344c12.288 7.68 29.696 7.68 41.472 0l367.616-249.344c8.192-5.632 12.8-13.824 12.8-22.528 0-9.216-4.608-17.408-12.8-22.528l-367.104-249.344c-6.144-4.608-13.312-6.656-20.992-6.656z m0 788.992c-22.016 0-44.544-6.144-62.976-18.944L14.848 535.04c-14.848-10.24-16.896-28.16-5.632-40.448 11.264-13.312 32.256-15.36 47.104-5.12l434.688 294.912c12.288 8.192 29.696 8.192 41.472 0l434.688-294.912c14.848-10.24 35.84-7.68 47.616 4.608s9.216 31.232-5.632 40.448L574.464 829.44c-17.92 12.288-39.936 18.944-62.464 18.944z m0 174.08c-22.016 0-44.544-6.144-62.976-18.944L14.848 709.12c-14.848-10.24-16.896-28.16-5.632-40.448 11.776-12.8 32.768-14.848 47.616-4.608L491.52 958.976c12.288 8.192 29.696 8.192 41.472 0l434.688-294.912c14.848-10.24 35.84-7.68 47.616 4.608 11.776 12.8 9.216 31.232-5.632 40.448l-434.688 294.912c-18.432 11.776-40.448 18.432-62.976 18.432z" fill="#707070" p-id="1555"></path></svg>