<?xml version="1.0" standalone="no"?><!DOCTYPE svg PUBLIC "-//W3C//DTD SVG 1.1//EN" "http://www.w3.org/Graphics/SVG/1.1/DTD/svg11.dtd"><svg t="1717668109286" class="icon" viewBox="0 0 1024 1024" version="1.1" xmlns="http://www.w3.org/2000/svg" p-id="2104" xmlns:xlink="http://www.w3.org/1999/xlink" width="200" height="200"><path d="M715.50293333 903.4752c-59.56266667 0-158.9248 17.57866667-174.45546666 58.12906667l0 0.88746666c-34.6112 0.9216-42.7008 0-58.12906667 0-15.49653333-40.58453333-114.85866667-58.1632-174.45546667-58.1632l-319.82933333 0 0-843.19573333 347.7504 0c75.0592 0 139.91253333 38.53653333 175.58186667 95.47093333 35.6352-56.90026667 100.59093333-95.47093333 175.68426666-95.47093333l347.7504 0 0 842.37653333-319.86346666-0.03413333zM482.9184 235.58826667c0-67.9936-73.4208-116.29226667-145.37386667-116.29226667l-290.78186666 0 0 726.86933333 261.70026666 0c57.68533333-0.98986667 148.65066667 0.58026667 174.45546667 43.1104l0-32.59733333c-1.09226667-40.31146667-0.03413333-95.26613333 0-97.45066667l0-504.96853333 0.03413333-18.70506667zM977.2032 119.22773333l-290.7136 0c-71.9872 0-145.408 48.29866667-145.408 116.18986667l0 523.1616c0.03413333 2.2528 1.1264 57.17333333 0 97.31413333l0 32.59733334c25.8048-42.42773333 116.77013333-44.10026667 174.45546667-43.07626667l261.70026666 0 0-726.15253333z" fill="#707070" p-id="2105"></path></svg>