<?xml version="1.0" standalone="no"?><!DOCTYPE svg PUBLIC "-//W3C//DTD SVG 1.1//EN" "http://www.w3.org/Graphics/SVG/1.1/DTD/svg11.dtd"><svg t="1726025379770" class="icon" viewBox="0 0 1024 1024" version="1.1" xmlns="http://www.w3.org/2000/svg" p-id="3062" xmlns:xlink="http://www.w3.org/1999/xlink" width="200" height="200"><path d="M531.28 307.48l45.24 45.24-183.8 183.8-45.24-45.24 183.8-183.8m0-90.48L257 491.28 392.72 627 667 352.72 531.28 217zM672 928H128c-17.67 0-32-14.33-32-32s14.33-32 32-32h544c17.67 0 32 14.33 32 32s-14.33 32-32 32z" p-id="3063"></path><path d="M826.92 884.96c-24.16 0-48.32-9.19-66.72-27.58L419.74 517.04l135.34-135.29 340.16 340.02c17.9 17.89 27.76 41.69 27.76 67s-9.86 49.11-27.76 67l-1.6 1.6c-18.4 18.39-42.56 27.59-66.72 27.59z m-21.47-72.85c11.84 11.83 31.1 11.83 42.94 0l1.6-1.6c5.8-5.8 9-13.52 9-21.73s-3.2-15.93-9.01-21.74l-294.91-294.8-44.81 44.8 295.19 295.07zM686.33 426c-21.01 0-40.77-8.18-55.63-23.04L472.04 244.3c-30.67-30.67-30.67-80.58 0-111.26C486.9 118.18 506.66 110 527.67 110c21.01 0 40.77 8.18 55.63 23.04L741.96 291.7c30.67 30.67 30.67 80.58 0 111.26C727.1 417.82 707.34 426 686.33 426zM527.67 174c-2.27 0-6.63 0.56-10.37 4.3-5.72 5.72-5.72 15.03 0 20.75L675.96 357.7c3.74 3.74 8.1 4.3 10.37 4.3 2.27 0 6.63-0.56 10.37-4.3 5.72-5.72 5.72-15.03 0-20.75L538.04 178.3c-3.74-3.74-8.1-4.3-10.37-4.3zM387.33 719.96c-20.15 0-40.29-7.67-55.63-23L173.04 538.3C158.18 523.44 150 503.68 150 482.67s8.18-40.77 23.04-55.63c30.67-30.67 80.58-30.67 111.26 0L442.96 585.7c14.86 14.86 23.04 34.61 23.04 55.63s-8.18 40.77-23.04 55.63c-15.34 15.33-35.48 23-55.63 23z m-10.37-68.26c5.72 5.72 15.03 5.72 20.75 0 3.74-3.74 4.3-8.1 4.3-10.37s-0.56-6.63-4.3-10.37L239.04 472.3c-5.72-5.72-15.03-5.72-20.75 0-3.74 3.74-4.3 8.1-4.3 10.37 0 2.27 0.56 6.63 4.3 10.37L376.96 651.7z" p-id="3064"></path></svg>