<?xml version="1.0" standalone="no"?><!DOCTYPE svg PUBLIC "-//W3C//DTD SVG 1.1//EN" "http://www.w3.org/Graphics/SVG/1.1/DTD/svg11.dtd"><svg t="1725096431988" class="icon" viewBox="0 0 1024 1024" version="1.1" xmlns="http://www.w3.org/2000/svg" p-id="1092" xmlns:xlink="http://www.w3.org/1999/xlink" width="200" height="200"><path d="M609.34927803 257.10541431c15.79336691-12.68647506 37.92997136-12.68647506 55.27678419 1.55344594 15.79336691 15.79336691 15.79336691 37.92997136 0 53.72333827L326.36321185 649.09160297c-22.13660445 20.58315852-22.13660445 56.95968395 0 80.64973431 20.58315852 22.13660445 56.95968395 22.13660445 80.64973432 0l396.77598025-398.32942617c55.27678419-55.27678419 55.27678419-146.93009383 0-202.33633186-55.27678419-55.27678419-146.93009383-55.27678419-202.33633185 0l-47.38010074 47.38010075-12.68647507 12.68647506-365.05979259 365.05979259c-90.0998637 90.0998637-90.0998637 233.92306569 0 324.02292938s233.92306569 90.0998637 324.02292938 0l366.74269235-363.50634666c6.34323753-3.10689185 9.45012939-7.89668347 12.68647507-12.68647506 15.79336691-15.79336691 37.92997136-15.79336691 53.72333827 0s15.79336691 37.92997136 0 53.72333827l-3.10689185 3.10689185c-3.10689185 1.55344592-6.34323753 6.34323753-9.45012939 9.45012939L554.07249383 931.94821531c-118.57970569 118.57970569-313.01935408 118.57970569-431.46960593 0-118.57970569-118.57970569-118.57970569-313.01935408 0-431.46960592l425.1263684-426.80926815c85.3100721-85.3100721 224.4729363-85.3100721 311.33645431 0 85.3100721 85.3100721 85.3100721 224.4729363 0 311.33645431L460.73628445 783.46467555c-52.16989235 52.16989235-137.47996445 52.16989235-188.09641087 0-52.16989235-52.16989235-52.16989235-137.47996445 0-188.09641086l336.70940445-338.26285038z" fill="#707070" p-id="1093"></path></svg>