<?xml version="1.0" standalone="no"?><!DOCTYPE svg PUBLIC "-//W3C//DTD SVG 1.1//EN" "http://www.w3.org/Graphics/SVG/1.1/DTD/svg11.dtd"><svg t="1717667980856" class="icon" viewBox="0 0 1024 1024" version="1.1" xmlns="http://www.w3.org/2000/svg" p-id="2044" xmlns:xlink="http://www.w3.org/1999/xlink" width="200" height="200"><path d="M218.81362964 395.49155555h233.01688888c21.44483555 0 38.83614815-17.39131259 38.83614815-38.83614814s-17.39131259-38.83614815-38.83614815-38.83614816H218.81362964c-21.44483555 0-38.83614815 17.39131259-38.83614815 38.83614816s17.39131259 38.83614815 38.83614815 38.83614814zM218.81362964 589.6722963h427.19762962c21.46910815 0 38.83614815-17.36704 38.83614816-38.83614815s-17.36704-38.83614815-38.83614816-38.83614815H218.81362964c-21.44483555 0-38.83614815 17.36704-38.83614815 38.83614815s17.39131259 38.83614815 38.83614815 38.83614815zM451.83051852 706.18074075H218.81362964c-21.44483555 0-38.83614815 17.36704-38.83614815 38.83614814s17.39131259 38.83614815 38.83614815 38.83614814h233.01688888c21.44483555 0 38.83614815-17.36704 38.83614815-38.83614814s-17.39131259-38.83614815-38.83614815-38.83614814zM1010.07587556 673.60692148L872.76581926 536.29686518c-7.58518518-7.58518518-17.52481185-11.37170963-27.46443851-11.37170963s-19.87925333 3.78652445-27.46443853 11.37170963L540.87452445 813.27141925c-7.28177778 7.28177778-11.37170963 17.16072297-11.37170963 27.46443853V978.03377778c0 21.44483555 17.39131259 38.83614815 38.83614815 38.83614814h137.31005629c10.30371555 0 20.18266075-4.08993185 27.46443852-11.37170962l276.96241778-276.96241778c15.15823408-15.17037037 15.15823408-39.75850667 0-54.92887704zM689.55629037 939.19762963H607.17511112v-82.38117926L845.30138075 618.67804445l82.38117925 82.38117925L689.55629037 939.19762963z" fill="#707070" p-id="2045"></path><path d="M412.99437037 939.19762963H102.30518519V84.80237037h465.86386963l0.13349926 155.45381926c0.07281778 42.75617185 34.92826075 77.56306963 77.67229629 77.56306962H801.35585185v97.09037038c0 21.44483555 17.39131259 38.83614815 38.83614815 38.83614815s38.83614815-17.39131259 38.83614815-38.83614815V224.21200592c0-10.41294222-4.18702222-20.38897778-11.60229926-27.69502814L686.1702637 18.27119408A38.83857541 38.83857541 0 0 0 658.94855112 7.13007408H63.46903704c-21.44483555 0-38.83614815 17.39131259-38.83614815 38.83614814v932.06755556c0 21.44483555 17.39131259 38.83614815 38.83614815 38.83614814h349.52533333c21.44483555 0 38.83614815-17.39131259 38.83614815-38.83614814s-17.39131259-38.83614815-38.83614815-38.83614815z m388.02166519-699.05066666H645.97485037l-0.12136295-152.58965334L801.01603556 240.14696297z" fill="#707070" p-id="2046"></path></svg>