<?xml version="1.0" standalone="no"?><!DOCTYPE svg PUBLIC "-//W3C//DTD SVG 1.1//EN" "http://www.w3.org/Graphics/SVG/1.1/DTD/svg11.dtd"><svg t="1717578336048" class="icon" viewBox="0 0 1024 1024" version="1.1" xmlns="http://www.w3.org/2000/svg" p-id="1794" xmlns:xlink="http://www.w3.org/1999/xlink" width="200" height="200"><path d="M989.86666667 716.8h-67.85706667v-178.55146667a34.13333333 34.13333333 0 0 0-34.13333333-34.13333333H546.13333333V409.6h170.66666667a34.13333333 34.13333333 0 0 0 34.13333333-34.13333333V68.26666667a34.13333333 34.13333333 0 0 0-34.13333333-34.13333334H307.2a34.13333333 34.13333333 0 0 0-34.13333333 34.13333334v307.2a34.13333333 34.13333333 0 0 0 34.13333333 34.13333333h170.66666667v94.5152H138.6496a34.13333333 34.13333333 0 0 0-34.13333333 34.0992L104.31146667 716.8H34.13333333a34.13333333 34.13333333 0 0 0-34.13333333 34.13333333v204.8a34.13333333 34.13333333 0 0 0 34.13333333 34.13333334h204.8a34.13333333 34.13333333 0 0 0 34.13333334-34.13333334v-204.8a34.13333333 34.13333333 0 0 0-34.13333334-34.13333333H172.57813333l0.17066667-144.41813333H477.86666667V716.8h-68.26666667a34.13333333 34.13333333 0 0 0-34.13333333 34.13333333v204.8a34.13333333 34.13333333 0 0 0 34.13333333 34.13333334h204.8a34.13333333 34.13333333 0 0 0 34.13333333-34.13333334v-204.8a34.13333333 34.13333333 0 0 0-34.13333333-34.13333333h-68.26666667v-144.41813333h307.6096V716.8H785.06666667a34.13333333 34.13333333 0 0 0-34.13333334 34.13333333v204.8a34.13333333 34.13333333 0 0 0 34.13333334 34.13333334h204.8a34.13333333 34.13333333 0 0 0 34.13333333-34.13333334v-204.8a34.13333333 34.13333333 0 0 0-34.13333333-34.13333333zM341.33333333 102.4h341.33333334v238.93333333H341.33333333V102.4zM204.8 921.6H68.26666667v-136.53333333h136.53333333v136.53333333z m375.46666667 0h-136.53333334v-136.53333333h136.53333334v136.53333333z m375.46666666 0h-136.53333333v-136.53333333h136.53333333v136.53333333z" fill="#707070" p-id="1795"></path></svg>