<?xml version="1.0" standalone="no"?><!DOCTYPE svg PUBLIC "-//W3C//DTD SVG 1.1//EN" "http://www.w3.org/Graphics/SVG/1.1/DTD/svg11.dtd"><svg t="1717578856227" class="icon" viewBox="0 0 1024 1024" version="1.1" xmlns="http://www.w3.org/2000/svg" p-id="1862" xmlns:xlink="http://www.w3.org/1999/xlink" width="200" height="200"><path d="M727.72266667 804.18133333H294.00177778c-20.13866667 0-36.40888889-16.27022222-36.40888889-36.40888888s16.27022222-36.40888889 36.40888889-36.4088889h433.72088889c20.13866667 0 36.40888889 16.27022222 36.40888888 36.4088889s-16.384 36.40888889-36.40888888 36.40888888z" fill="#707070" p-id="1863"></path><path d="M915.456 1021.952H111.27466667c-38.57066667 0-69.97333333-31.51644445-69.97333334-70.20088889V72.47644445c0-38.68444445 31.40266667-70.20088889 69.97333334-70.2008889h604.16c20.13866667 0 36.40888889 16.27022222 36.40888888 36.4088889s-16.27022222 36.40888889-36.40888888 36.40888888H114.11911111v874.15466667h798.60622222V294.11555555c0-20.13866667 16.27022222-36.40888889 36.40888889-36.40888888s36.40888889 16.27022222 36.40888889 36.40888888v657.63555556c0 38.68444445-31.40266667 70.20088889-70.08711111 70.20088889z" fill="#707070" p-id="1864"></path><path d="M729.31555555 512.45511111H293.20533333c-20.13866667 0-36.40888889-16.27022222-36.40888888-36.40888889s16.27022222-36.40888889 36.40888888-36.40888889H729.31555555c20.13866667 0 36.40888889 16.27022222 36.4088889 36.40888889s-16.384 36.40888889-36.4088889 36.40888889zM729.31555555 657.86311111H293.20533333c-20.13866667 0-36.40888889-16.27022222-36.40888888-36.40888889s16.27022222-36.40888889 36.40888888-36.40888889H729.31555555c20.13866667 0 36.40888889 16.27022222 36.4088889 36.40888889s-16.384 36.40888889-36.4088889 36.40888889zM948.56533333 329.38666667H730.56711111c-40.16355555 0-72.81777778-32.65422222-72.81777778-72.81777778V38.57066667c0-20.13866667 16.27022222-36.40888889 36.40888889-36.40888889s36.40888889 16.27022222 36.40888889 36.40888889v217.88444444l0.11377778 0.11377778h217.88444444c20.13866667 0 36.40888889 16.27022222 36.40888889 36.40888889s-16.27022222 36.40888889-36.40888889 36.40888889z" fill="#707070" p-id="1865"></path><path d="M948.90666667 330.52444445c-9.89866667 0-19.79733333-3.98222222-26.96533334-11.94666667l-229.83111111-252.81422223c-13.53955555-14.90488889-12.40177778-37.888 2.50311111-51.42755555 14.90488889-13.53955555 37.888-12.40177778 51.42755556 2.50311111l229.83111111 252.81422222c13.53955555 14.90488889 12.40177778 37.888-2.50311111 51.42755556-6.94044445 6.25777778-15.70133333 9.44355555-24.46222222 9.44355556z" fill="#707070" p-id="1866"></path></svg>