<?xml version="1.0" standalone="no"?><!DOCTYPE svg PUBLIC "-//W3C//DTD SVG 1.1//EN" "http://www.w3.org/Graphics/SVG/1.1/DTD/svg11.dtd"><svg t="1746670690182" class="icon" viewBox="0 0 1024 1024" version="1.1" xmlns="http://www.w3.org/2000/svg" p-id="5413" xmlns:xlink="http://www.w3.org/1999/xlink" width="200" height="200"><path d="M704 115.2c-44.771556 0-83.228444 19.228444-115.2 44.828444C550.4 89.6 479.971556 44.828444 396.8 44.828444 281.6 44.828444 185.571556 134.428444 185.571556 256c0 121.628444 96.028444 211.228444 211.228444 211.228444 64 0 121.571556-32.028444 159.971556-76.8 32.028444 44.771556 83.228444 76.8 147.228444 76.8a172.088889 172.088889 0 0 0 172.771556-172.828444c0-102.4-76.8-179.2-172.771556-179.2z m-307.2 268.8a128.398222 128.398222 0 0 1-128-128 128.398222 128.398222 0 0 1 128-128 128.398222 128.398222 0 0 1 128 128 128.398222 128.398222 0 0 1-128 128z m307.2 0c-51.2 0-96.028444-44.771556-96.028444-95.971556s38.456889-96.028444 96.028444-96.028444c51.2 0 96.028444 44.828444 96.028444 96.028444-6.428444 51.2-44.828444 95.971556-96.028444 95.971556z m6.428444 115.2H492.771556c-83.171556 0-147.171556 51.2-166.4 128L204.8 556.828444c-70.428444-38.4-160.028444 12.8-160.028444 89.6v153.6c0 83.171556 89.6 134.371556 160.028444 89.6l115.2-64c19.171556 76.8 89.6 128 166.4 128h224.028444a172.088889 172.088889 0 0 0 172.771556-172.828444v-102.4c6.371556-102.4-70.428444-179.2-172.771556-179.2z m-416.028444 249.628444l-134.428444 76.8c-12.8 6.371556-31.971556 0-31.971556-19.228444v-153.6c0-19.171556 19.171556-31.971556 31.971556-19.171556l134.428444 76.8c6.371556 6.371556 12.8 12.8 12.8 19.171556 0 6.428444-6.428444 12.8-12.8 19.228444z m512 31.971556c0 51.2-44.828444 96.028444-96.028444 96.028444H492.828444c-51.2 0-95.971556-44.828444-95.971555-96.028444v-102.4c0-51.2 44.771556-95.971556 95.971555-95.971556H716.8c51.2 0 96.028444 44.771556 96.028444 95.971556v102.4h-6.428444z" p-id="5414"></path></svg>