<?xml version="1.0" standalone="no"?><!DOCTYPE svg PUBLIC "-//W3C//DTD SVG 1.1//EN" "http://www.w3.org/Graphics/SVG/1.1/DTD/svg11.dtd"><svg t="1716272441531" class="icon" viewBox="0 0 1024 1024" version="1.1" xmlns="http://www.w3.org/2000/svg" p-id="837" xmlns:xlink="http://www.w3.org/1999/xlink" width="256" height="256"><path d="M979.34222222 676.7616c-23.40408889 0-42.38222222 18.97813333-42.38222222 42.38222222 0 117.03182222-94.87928889 211.91111111-211.91111111 211.91111111S513.13777778 836.18702222 513.13777778 719.14382222s94.87928889-211.91111111 211.91111111-211.91111111c50.09635555 0 97.3824 17.408 135.02008889 48.57173334l2.17315555 1.8887111-48.40106666 0.02275556-4.93795556 0.28444444c-21.08302222 2.44622222-37.44426667 20.36622222-37.44426666 42.09777778 0 23.40408889 18.97813333 42.38222222 42.38222222 42.38222222h153.89582222l4.93795556-0.28444444c11.69635555-1.35395555 21.93635555-7.4752 28.72888888-16.32711111 10.05795555-7.74826667 16.53191111-19.91111111 16.53191112-33.5872V438.38577778l-0.28444445-4.93795556c-2.44622222-21.08302222-20.36622222-37.44426667-42.09777778-37.44426667-23.40408889 0-42.38222222 18.97813333-42.38222222 42.38222223l0.04551111 71.70275555a42.19676445 42.19676445 0 0 0-8.04408889-9.95555555c-54.28337778-49.62986667-125.07591111-77.66471111-200.12373333-77.66471111-163.85137778 0-296.67555555 132.82417778-296.67555556 296.67555555s132.82417778 296.67555555 296.67555556 296.67555556S1021.72444445 882.9952 1021.72444445 719.14382222c0-23.40408889-18.97813333-42.38222222-42.38222223-42.38222222zM216.46222222 676.7616c0 21.73155555 16.36124445 39.65155555 37.44426667 42.09777778l2.82168889 0.15928889 2.83306667-0.15928889c21.08302222-2.44622222 37.44426667-20.36622222 37.44426666-42.09777778 0-23.40408889-18.97813333-42.38222222-42.38222222-42.38222222l2.11626666 0.12515555-2.82168888 0.15928889c-21.0944 2.4576-37.45564445 20.36622222-37.45564445 42.09777778zM301.94346667 506.94826667c21.08302222-2.44622222 37.44426667-20.36622222 37.44426666-42.09777778 0-23.40408889-18.97813333-42.38222222-42.38222222-42.38222222H258.84444445l-4.93795556 0.28444444c-21.08302222 2.44622222-37.44426667 20.36622222-37.44426667 42.09777778 0 23.40408889 18.97813333 42.38222222 42.38222223 42.38222222h38.14968888l4.94933334-0.28444444zM768.14791111 295.03715555c21.08302222-2.44622222 37.44426667-20.36622222 37.44426667-42.09777777 0-23.40408889-18.97813333-42.38222222-42.38222223-42.38222223H258.84444445l-4.93795556 0.28444445c-21.08302222 2.44622222-37.44426667 20.36622222-37.44426667 42.09777778 0 23.40408889 18.97813333 42.38222222 42.38222223 42.38222222h504.35413333l4.94933333-0.28444445z" fill="#707070" p-id="838"></path><path d="M1021.53102222 201.36391111c-4.8128-112.76515555-97.75786667-202.71786667-211.71768889-202.71786666h-593.35111111l-9.19324444 0.19342222C94.50382222 3.66364445 4.55111111 96.60871111 4.55111111 210.55715555v593.35111112l0.19342222 9.19324444c4.8128 112.76515555 97.75786667 202.71786667 211.71768889 202.71786667h115.43893333l4.93795556-0.28444445c21.08302222-2.44622222 37.44426667-20.36622222 37.44426667-42.09777778 0-23.40408889-18.97813333-42.38222222-42.38222223-42.38222222H216.46222222l-7.4752-0.21617778c-66.74204445-3.86844445-119.67146667-59.22133333-119.67146667-126.93048888v-593.35111112l0.21617778-7.4752c3.86844445-66.74204445 59.22133333-119.67146667 126.93048889-119.67146666h593.35111111l7.4752 0.21617778c66.74204445 3.86844445 119.67146667 59.22133333 119.67146667 126.93048888v92.63786667l0.28444445 4.93795556c2.44622222 21.08302222 20.36622222 37.44426667 42.09777777 37.44426667 23.40408889 0 42.38222222-18.97813333 42.38222223-42.38222223v-92.63786667l-0.19342223-9.19324444z" fill="#707070" p-id="839"></path></svg>