<?xml version="1.0" standalone="no"?><!DOCTYPE svg PUBLIC "-//W3C//DTD SVG 1.1//EN" "http://www.w3.org/Graphics/SVG/1.1/DTD/svg11.dtd"><svg t="1716273364784" class="icon" viewBox="0 0 1024 1024" version="1.1" xmlns="http://www.w3.org/2000/svg" p-id="1086" xmlns:xlink="http://www.w3.org/1999/xlink" width="256" height="256"><path d="M719.37503232 900.2910117a30.29219555 30.29219555 0 1 0 23.18464227-55.97267968 30.29219555 30.29219555 0 1 0-23.18464227 55.97267968Z" fill="#707070" p-id="1087"></path><path d="M1015.31648 845.21415111l-189.90876445-332.04906666c-20.38897778-33.78744889-54.17642667-54.17642667-91.45912888-54.17642667s-71.07015111 20.38897778-91.45912889 54.17642667l-193.40401778 332.04906666c-20.38897778 33.78744889-20.38897778 74.56540445 0 104.8576 20.38897778 33.78744889 54.17642667 50.68117333 91.45912889 50.68117334h382.73024c37.28270222 3.49525333 71.07015111-16.89372445 91.45912889-50.68117334 20.97152-33.20490667 20.97152-70.48760889 0.58254222-104.8576z m-43.69066667 81.55591111c-9.90321778 16.89372445-30.29219555 30.29219555-50.68117333 30.29219556h-382.73024c-20.38897778 0-40.77795555-9.90321778-50.68117333-27.37948445-9.90321778-16.89372445-9.90321778-40.77795555 0-57.67168l193.40401778-332.04906666c9.90321778-16.89372445 30.29219555-30.29219555 50.68117333-30.29219556 20.38897778 0 40.77795555 9.90321778 50.68117333 30.29219556l189.90876444 332.04906666c12.81592889 13.98101333 12.81592889 37.86524445-0.58254222 54.75896889z" fill="#707070" p-id="1088"></path><path d="M728.70570667 591.80828445c-18.05880889 1.16508445-31.45728 16.31118222-30.29219556 34.3699911l9.32067556 172.43249778c0.58254222 11.65084445 9.90321778 20.97152 21.55406222 21.55406222 12.81592889 0.58254222 23.30168889-8.73813333 24.46677333-21.55406222l9.32067556-172.43249778v-3.49525333c-1.16508445-18.64135111-16.31118222-32.03982222-34.36999111-30.87473777zM150.82382222 525.39847111c0 15.72864 12.81592889 28.54456889 28.54456889 28.54456889 0 0 217.87079111-0.58254222 365.83651556-1.16508445l33.20490666-57.08913777-399.04142222 1.74762667c-15.72864-0.58254222-28.54456889 12.23338667-28.54456889 27.96202666zM498.01898667 339.56750222c15.72864 0 28.54456889-12.81592889 28.54456888-28.54456889s-12.81592889-28.54456889-28.54456888-28.54456888H188.68906667c-15.72864 0-28.54456889 12.81592889-28.54456889 28.54456888s12.81592889 28.54456889 28.54456889 28.54456889h309.32992zM179.36839111 703.07384889c-15.72864 0-28.54456889 12.81592889-28.54456889 28.54456889s12.81592889 28.54456889 28.54456889 28.54456889l245.83281778-1.16508445 33.20490666-57.08913777-279.03772444 1.16508444z" fill="#707070" p-id="1089"></path><path d="M59.36469333 906.96362667c-5.24288 0-9.32067555-4.07779555-9.32067555-9.32067556V88.49180445c0-5.24288 4.07779555-9.32067555 9.32067555-9.32067556h506.81173334c-0.58254222 4.66033778-0.58254222 9.90321778-0.58254222 15.72864l1.16508444 209.13265778c0 20.97152 16.89372445 37.86524445 37.86524444 37.86524444h175.92775112c9.32067555 0 17.47626667-0.58254222 24.46677333-2.33016889v71.07015111c21.55406222 9.90321778 40.77795555 24.46677333 57.08913777 43.10812445V324.42140445c0-17.47626667-8.15559111-39.03032889-19.80643555-51.84625778L637.24657778 45.96622222c-12.23338667-13.98101333-34.36999111-23.30168889-53.01134223-23.30168889H59.36469333C22.66453333 22.08199111-6.46257778 51.79164445-6.46257778 88.49180445v808.56860444c0 36.70016 29.70965333 66.40981333 66.40981333 66.40981333H383.84071111c-8.15559111-18.05880889-12.81592889-37.28270222-13.39847111-57.08913777H59.36469333zM765.40586667 284.80853333h-141.55776l-1.16508445-156.12131555L765.40586667 284.80853333z" fill="#707070" p-id="1090"></path></svg>