<?xml version="1.0" standalone="no"?><!DOCTYPE svg PUBLIC "-//W3C//DTD SVG 1.1//EN" "http://www.w3.org/Graphics/SVG/1.1/DTD/svg11.dtd"><svg t="1729849998907" class="icon" viewBox="0 0 1024 1024" version="1.1" xmlns="http://www.w3.org/2000/svg" p-id="1016" xmlns:xlink="http://www.w3.org/1999/xlink" width="64" height="64"><path d="M434.12057758 230.3084721c38.2354824 62.55208928 57.70533799 111.47527965 102.03032841 136.95179283 19.67698173 0 78.83220258 0 94.07668528-3.1897423l26.30501768-31.48317077c54.84699749-61.59930912 116.40488139-85.79164034 193.58007498-49.08889125 51.53297952 31.15176897 74.27542787 75.1453576 60.52225328 117.23338588-8.90642331 27.21637262-26.71926992 45.07064446-56.08975424 66.28035949-18.35137454 15.12020702-28.74910594 29.41190953-34.21723559 42.83368234 11.59906291 32.51880139 21.87251863 59.32092176 30.94464284 80.40636112l56.83540828 123.44716958c10.60485751-8.28504494 20.9611637-16.90149168 31.06891851-25.8493402a43.24793458 43.24793458 0 0 1 58.61669294 1.57415853c15.74158539 15.74158539 14.95450611 40.47244453-1.65700898 55.30267497C866.10282066 860.55184055 694.51954 926.25224691 512.08285045 926.25224691c-181.85673639 0-352.94291437-65.28615411-482.81099378-180.44827875a37.61410402 37.61410402 0 0 1-1.82270989-55.30267497 43.24793458 43.24793458 0 0 1 58.61669295-1.73985943c13.54604848 12.01331517 34.8800392 28.58340503 64.08482258 49.75169486 53.43853985-78.29367467 88.77425651-189.60325342 100.41474466-260.48181287-24.44088257 16.07298718-77.13376837 65.12045322-151.24349534 28.58340505-104.80581847-67.23313968-107.45703285-176.30575629-33.47158155-242.62754103 6.2137837-7.49796567 45.15349491-36.4127725 49.54456873-46.72765346 6.75231163-42.54370576 38.60830942-88.23572859 82.56047281-108.2441121 113.62939133-51.1601525 219.63654131 82.80902416 236.12378073 121.25163267z m78.74935214 488.36197388c-75.43533417 0-146.23104317 45.69202284-167.77216 107.8712851 53.64566597 14.08457639 83.67895387 21.41684116 167.02650596 21.41684117 55.50980109 0 110.43964903-6.91801253 164.70669337-20.7954628-22.78387358-70.50573243-83.88608-108.53408869-163.96103933-108.53408868zM232.08975677 184.69929971c-22.90814925 11.26766112-34.09295991 35.79139413-35.87424459 51.03587682-5.42670444 22.61817268-17.72999617 39.47823913-37.44840311 57.16681008l-36.24707162 31.69029689c-35.54284278 30.53039059-35.83281936 73.3226477 17.48144482 109.52829408 14.78880522 5.59240533 34.25866082-1.36703242 58.40956682-20.87831324 38.15263195-26.51214381 62.05498658-37.53125357 98.75773566-37.53125358a41.42522469 41.42522469 0 0 1 41.34237424 40.67957066c1.65700898 85.87449078-38.2354824 232.39551052-97.9706564 332.43742815l-18.80705201 31.48317075c14.66452955 7.29083955 29.57761043 14.00172595 44.82209312 20.17408443l0.12427568-0.4971027c33.3887311-97.55640415 136.70324148-164.33386635 246.19011034-164.33386635 114.5821715 0 212.59425312 63.54629467 242.62754102 165.65947355 19.22130427-7.66366657 46.9762048-21.20971504 83.26470162-40.67957066-1.90556034-4.05967202-26.05646633-56.91825872-72.41129275-158.61718534-19.55270605-46.93477957-33.96868425-85.95734124-28.0034519-107.91271032 8.94784853-31.23461941 28.70768071-62.51066405 65.74183159-92.7925033 16.2801133-11.84761426 25.14511138-20.46406099 27.5063492-25.4765132-2.31981259-4.43249904-8.57502151-10.85340887-19.6355565-18.55850065-36.16422115-16.15583763-61.43360821-5.63383056-93.74528349 30.65466627-21.12686459 25.60078885-33.51300677 40.2653184-37.15842655 43.99358862-17.64714572 23.6538033-146.02391703 23.6538033-178.45986797 10.5634323l-0.28997657 0.57995314c-42.66798143-20.42263577-69.18012524-50.95302637-103.89446352-109.44544362C340.08531753 217.75662901 284.61694167 168.17063506 232.08975677 184.74072494z" fill="#707070" p-id="1017"></path></svg>