<?xml version="1.0" standalone="no"?><!DOCTYPE svg PUBLIC "-//W3C//DTD SVG 1.1//EN" "http://www.w3.org/Graphics/SVG/1.1/DTD/svg11.dtd"><svg t="1716272625680" class="icon" viewBox="0 0 1024 1024" version="1.1" xmlns="http://www.w3.org/2000/svg" p-id="897" xmlns:xlink="http://www.w3.org/1999/xlink" width="256" height="256"><path d="M647.02034173 544.10454914l253.60004741 253.60004739c26.53803457 26.53803457 26.53803457 69.77561283 0 96.31364742-26.79694222 26.79694222-70.29342815 26.53803457-96.83146272-0.51781531L547.98816395 632.39205925c-17.86462815-21.8776968-48.02736987-27.70311902-73.78868148-16.31118222-24.20786569 10.74466765-50.35753876 17.99408197-77.80175012 21.10097383-105.24596148 11.65084445-202.5952395-47.89791605-257.87202371-138.38614123-38.31833283-62.65565235-41.94304-120.39205925-32.23400295-173.33867457l131.78399604 131.65454222c23.94895803 23.94895803 62.78510617 23.94895803 86.73406419 0L448.56762469 333.35371852c23.94895803-23.94895803 23.94895803-62.78510617 0-86.86351802L315.35963653 113.54112c16.6995437-3.3657995 33.91690272-5.17815309 51.65207705-5.17815309 132.81962667 0 243.11428741 98.25545482 262.144 225.8969284 3.10689185 20.97152 21.23042765 36.37652543 42.46085531 36.37652544 26.40858075 0 47.12119309-23.43114272 43.23757828-49.58081581C689.48119703 151.72999902 543.45728 21.75835653 367.01171358 21.75835653c-42.71976297 0-83.49771852 8.02613728-121.42768988 22.00715064-41.81358617 15.53445925-53.46443061 68.99888987-21.87769679 100.45616986L369.60079013 290.11614025l-88.02860248 88.02860247-146.28282468-146.28282469c-31.06891852-31.06891852-83.75662617-19.28862025-98.6438163 22.00715061l-0.51781531 1.29453827c-23.04278124 64.46800592-28.99765728 137.09160297-7.63777581 213.59881482C65.25484247 599.89914864 177.8796721 701.00258765 312.64110617 721.32683852c61.36111408 9.19122173 120.13315161 2.58907653 173.07976692-16.44063605l253.72950122 253.72950123c62.26729086 62.26729086 163.11182222 62.26729086 225.3791131 0 62.26729086-62.26729086 62.26729086-163.11182222 0-225.37911309L711.35889383 479.89545086c-17.47626667-17.47626667-45.82665482-17.73517431-63.69128297-0.64726913-18.25298963 17.73517431-18.64135111 46.86228543-0.64726913 64.85636741z" fill="#707070" p-id="898"></path></svg>