<?xml version="1.0" standalone="no"?><!DOCTYPE svg PUBLIC "-//W3C//DTD SVG 1.1//EN" "http://www.w3.org/Graphics/SVG/1.1/DTD/svg11.dtd"><svg t="1729850247172" class="icon" viewBox="0 0 1024 1024" version="1.1" xmlns="http://www.w3.org/2000/svg" p-id="1262" xmlns:xlink="http://www.w3.org/1999/xlink" width="64" height="64"><path d="M369.06666667 652.58666667h285.76v95.25333333H369.06666667z" fill="#707070" p-id="1263"></path><path d="M226.24 224c0-105.17333333 85.33333333-190.50666667 190.50666667-190.50666667h190.50666666c105.17333333 0 190.50666667 85.33333333 190.50666667 190.50666667v47.57333333h-95.25333333V224c0-25.28-10.02666667-49.49333333-27.94666667-67.30666667-17.81333333-17.81333333-42.13333333-27.94666667-67.30666667-27.94666666H416.64c-25.28 0-49.49333333 10.02666667-67.30666667 27.94666666-17.81333333 17.81333333-27.84 42.13333333-27.84 67.30666667v142.93333333h523.84c25.28 0 49.49333333 10.02666667 67.30666667 27.94666667 17.81333333 17.81333333 27.84 42.13333333 27.84 67.30666667V890.66666667c0 25.28-10.02666667 49.49333333-27.84 67.30666666-17.81333333 17.81333333-42.13333333 27.94666667-67.30666667 27.94666667h-666.66666666c-25.28 0-49.49333333-10.02666667-67.30666667-27.94666667-17.81333333-17.81333333-27.94666667-42.13333333-27.94666667-67.30666666V462.18666667c0-52.58666667 42.66666667-95.25333333 95.25333334-95.25333334h47.57333333V224z m-47.68 238.18666667V890.66666667h666.66666667V462.18666667h-666.66666667z m0 0" fill="#707070" p-id="1264"></path></svg>