<?xml version="1.0" standalone="no"?><!DOCTYPE svg PUBLIC "-//W3C//DTD SVG 1.1//EN" "http://www.w3.org/Graphics/SVG/1.1/DTD/svg11.dtd"><svg t="1716272755143" class="icon" viewBox="0 0 1024 1024" version="1.1" xmlns="http://www.w3.org/2000/svg" p-id="958" xmlns:xlink="http://www.w3.org/1999/xlink" width="256" height="256"><path d="M368.18488889 933.54666667h-223.00444444l-5.00622223-0.34133334c-21.504-2.50311111-38.22933333-20.82133333-38.22933333-43.008v-485.83111111l0.34133333-5.12c1.36533333-11.71911111 7.62311111-22.528 17.18044445-29.696l365.79555555-271.36 4.89244445-3.18577777c15.01866667-8.30577778 33.90577778-7.05422222 47.67288888 3.86844444L837.74577778 334.50666667l4.43733333 3.072c18.432 11.03644445 42.66666667 6.94044445 56.32-10.35377778 14.79111111-18.77333333 11.49155555-46.08-7.28177778-60.87111111L591.30311111 30.72l-7.05422222-5.12c-45.39733333-31.06133333-105.92711111-30.15111111-150.64177778 2.95822222L67.81155555 300.032l-6.82666666 5.46133333c-28.89955555 24.576-45.62488889 60.64355555-45.62488889 98.87288889v485.83111111l0.22755555 7.62311112c3.98222222 68.26666667 60.52977778 122.31111111 129.70666667 122.3111111h223.00444445l5.00622222-0.34133333c21.504-2.50311111 38.22933333-20.82133333 38.22933333-43.008 0-23.77955555-19.34222222-43.23555555-43.34933333-43.23555555z" fill="#707070" p-id="959"></path><path d="M968.13511111 668.55822222c-23.89333333 0-43.34933333 19.34222222-43.34933333 43.34933333 0 119.58044445-96.93866667 216.51911111-216.51911111 216.51911112s-216.51911111-96.93866667-216.51911112-216.51911112c0-119.58044445 96.93866667-216.51911111 216.51911112-216.5191111 51.2 0 99.55555555 17.74933333 138.01244444 49.6071111l2.27555556 1.93422223h-49.49333334l-5.00622222 0.34133333c-21.504 2.50311111-38.22933333 20.82133333-38.22933333 43.008 0 23.89333333 19.34222222 43.34933333 43.34933333 43.34933334h157.24088889l5.00622222-0.34133334c11.94666667-1.36533333 22.41422222-7.62311111 29.35466667-16.72533333 10.24-7.96444445 16.83911111-20.36622222 16.83911111-34.36088889V424.96l-0.34133333-5.00622222c-2.50311111-21.504-20.82133333-38.22933333-43.008-38.22933333-23.89333333 0-43.34933333 19.34222222-43.34933334 43.34933333V498.34666667c-2.16177778-3.64088889-4.89244445-7.168-8.192-10.12622222-55.52355555-50.74488889-127.77244445-79.41688889-204.57244444-79.4168889-167.48088889 0-303.21777778 135.73688889-303.21777778 303.21777778s135.73688889 303.21777778 303.21777778 303.21777778S1011.48444445 879.27466667 1011.48444445 711.79377778c0-23.89333333-19.34222222-43.23555555-43.34933334-43.23555556z" fill="#707070" p-id="960"></path></svg>