<?xml version="1.0" standalone="no"?><!DOCTYPE svg PUBLIC "-//W3C//DTD SVG 1.1//EN" "http://www.w3.org/Graphics/SVG/1.1/DTD/svg11.dtd"><svg t="1716272882908" class="icon" viewBox="0 0 1024 1024" version="1.1" xmlns="http://www.w3.org/2000/svg" p-id="1020" xmlns:xlink="http://www.w3.org/1999/xlink" width="256" height="256"><path d="M784.70257778 865.0752c61.55377778-67.91395555 59.56266667-172.90808889-5.96195556-238.43271111-16.91875555-16.91875555-44.3392-16.91875555-61.25795555 0-16.91875555 16.91875555-16.91875555 44.3392 0 61.25795556l4.39182222 4.72177777c29.27502222 33.93991111 27.81866667 85.25368889-4.39182222 117.4528l-68.79004445 68.79004445-4.7104 4.39182222c-33.93991111 29.27502222-85.25368889 27.81866667-117.4528-4.39182222-33.73511111-33.73511111-33.73511111-88.43946667 0-122.18595556l45.86382223-45.86382222 3.36782222-3.77742222c13.45991111-16.9984 12.34488889-41.76782222-3.36782222-57.48053334-16.91875555-16.91875555-44.3392-16.91875555-61.25795556 0l-45.86382222 45.86382222-5.96195556 6.25777778c-61.55377778 67.91395555-59.56266667 172.90808889 5.96195556 238.43271112 67.57262222 67.57262222 177.11786667 67.57262222 244.69048888 0l68.79004445-68.79004445 5.95057778-6.2464z" fill="#707070" p-id="1021"></path><path d="M373.23662222 933.95626667h-223.00444444l-5.05173333-0.29582222c-21.53813333-2.50311111-38.26346667-20.80995555-38.26346667-43.01937778V404.76444445l0.29582222-5.09724445a43.27879111 43.27879111 0 0 1 17.2032-29.68462222l365.80693333-271.40551111 4.86968889-3.12888889c15.0528-8.32853333 33.87164445-6.99733333 47.69564445 3.85706667l299.98648888 235.58826666 4.48284445 3.09475556c18.44337778 11.09333333 42.7008 6.9632 56.33137778-10.39928889 14.77973333-18.81884445 11.50293333-46.04586667-7.31591111-60.81422223L596.29795555 31.16373333l-7.04284444-5.16551111c-45.43146667-31.01582222-105.94986667-30.15111111-150.6304 3.00373333L72.8064 300.40746667l-6.87217778 5.46133333a129.92625778 129.92625778 0 0 0-45.64764444 98.88426667v485.888l0.21617777 7.63448888c3.97084445 68.22115555 60.52977778 122.31111111 129.72942223 122.31111112h223.00444444l5.05173333-0.29582222c21.53813333-2.50311111 38.26346667-20.80995555 38.26346667-43.01937778 0-23.91608889-19.38773333-43.3152-43.3152-43.3152zM952.30862222 767.6928c-23.91608889 0-43.3152 19.38773333-43.3152 43.3152v76.53831111l-0.29582222 5.05173334c-2.50311111 21.53813333-20.80995555 38.26346667-43.01937778 38.26346666h-67.11751111l-5.05173333 0.29582222c-21.53813333 2.50311111-38.26346667 20.80995555-38.26346667 43.01937778 0 23.91608889 19.38773333 43.3152 43.3152 43.3152h67.11751111l7.63448889-0.21617778c68.20977778-3.94808889 122.29973333-60.5184 122.29973334-129.71804444v-76.53831111l-0.29582223-5.05173333c-2.49173333-21.56088889-20.79857778-38.27484445-43.008-38.27484445z" fill="#707070" p-id="1022"></path><path d="M710.61048889 450.08213333l-68.79004444 68.79004445-5.96195556 6.25777777c-61.55377778 67.91395555-59.56266667 172.90808889 5.96195556 238.43271112 16.91875555 16.91875555 44.3392 16.91875555 61.25795555 0 16.91875555-16.91875555 16.91875555-44.3392 0-61.25795556l-4.39182222-4.72177778c-29.27502222-33.93991111-27.81866667-85.25368889 4.39182222-117.4528l68.79004445-68.79004444 4.72177777-4.39182222c33.93991111-29.27502222 85.25368889-27.81866667 117.4528 4.39182222 33.73511111 33.73511111 33.73511111 88.43946667 0 122.18595556l-45.86382222 45.86382222-3.36782222 3.77742222c-13.45991111 16.9984-12.34488889 41.76782222 3.36782222 57.48053333 16.91875555 16.91875555 44.3392 16.91875555 61.25795555 0l45.86382223-45.86382222 5.96195555-6.25777778c61.55377778-67.91395555 59.56266667-172.90808889-5.96195555-238.43271111-67.56124445-67.584-177.11786667-67.584-244.69048889-0.01137778z" fill="#707070" p-id="1023"></path></svg>