<?xml version="1.0" standalone="no"?><!DOCTYPE svg PUBLIC "-//W3C//DTD SVG 1.1//EN" "http://www.w3.org/Graphics/SVG/1.1/DTD/svg11.dtd"><svg class="icon" width="200px" height="199.80px" viewBox="0 0 1025 1024" version="1.1" xmlns="http://www.w3.org/2000/svg"><path d="M16.677775 16.592975a56.796218 56.796218 0 0 0 0 80.406487l154.745938 153.137809H81.880126a56.869315 56.869315 0 1 0 0 113.665533h227.769648c31.431627 0 56.942412-25.437689 56.942412-56.796218V79.529325a56.869315 56.869315 0 0 0-113.884824 0v91.151717L97.084261 16.592975a57.015509 57.015509 0 0 0-80.406486 0zM671.771351 344.285957a56.942412 56.942412 0 0 0 56.869316 19.516847h213.442674a56.869315 56.869315 0 1 0 0-113.665533h-87.350684l153.3571-153.137809a56.796218 56.796218 0 0 0-80.406487-80.406487l-156.427165 156.207875V79.529325a56.869315 56.869315 0 0 0-113.884824 0V307.006586a57.380993 57.380993 0 0 0 14.40007 37.279371z m29.896594 315.632009a56.211444 56.211444 0 0 1 17.981814-2.704582h227.696552a56.869315 56.869315 0 1 1 0 113.738631h-94.879655l155.623101 155.403809a56.796218 56.796218 0 0 1-80.406487 80.406487l-151.164195-150.871808v85.669457a56.869315 56.869315 0 0 1-113.811728 0v-206.42538a56.796218 56.796218 0 0 1 38.960598-75.289711z m-527.978231 111.107145H81.953223a56.942412 56.942412 0 1 1 0-113.811727h227.769648a56.138347 56.138347 0 0 1 56.942412 56.869315v227.477261a56.869315 56.869315 0 0 1-113.884824 0v-88.885716l-155.696198 154.088067a56.796218 56.796218 0 1 1-80.406486-80.406487l157.011939-155.403809z" /></svg>