<?xml version="1.0" standalone="no"?><!DOCTYPE svg PUBLIC "-//W3C//DTD SVG 1.1//EN" "http://www.w3.org/Graphics/SVG/1.1/DTD/svg11.dtd"><svg t="1717577569851" class="icon" viewBox="0 0 1024 1024" version="1.1" xmlns="http://www.w3.org/2000/svg" p-id="1461" xmlns:xlink="http://www.w3.org/1999/xlink" width="200" height="200"><path d="M875.89031709 2.20748117H147.84252245C67.410944 2.20748117 2.20748117 67.410944 2.20748117 147.84252245v728.04779464C2.20748117 956.32189554 67.410944 1021.52535837 147.84252245 1021.52535837h728.04779464c80.43157845 0 145.63504128-65.20346283 145.63504128-145.63504128V147.84252245C1021.52535837 67.410944 956.32189554 2.20748117 875.89031709 2.20748117zM948.77565611 876.08760434A72.63050866 72.63050866 0 0 1 875.98896128 948.77565611H148.01103872c-19.46979328 0-37.85450723-7.48047815-51.6235173-21.24949049S74.95718457 895.55739762 74.95718457 876.08760434V147.91239566A73.08673593 73.08673593 0 0 1 148.01103872 74.95718457h727.97792256A72.86067769 72.86067769 0 0 1 948.77565611 147.91239566v728.17520868z" fill="#707070" p-id="1462"></path><path d="M830.57588338 329.78665358h-291.2700837a36.37485113 36.37485113 0 0 0 0 72.7497034h291.2700837a36.37485113 36.37485113 0 0 0 0-72.7497034zM830.57588338 621.19648256h-291.2700837a36.37485113 36.37485113 0 0 0 0 72.74970339h291.2700837a36.37485113 36.37485113 0 0 0 0-72.74970339zM320.85529259 530.20181163c-70.37814557 0-127.41473507 57.0530304-127.41473508 127.41473394s57.0530304 127.41473507 127.41473508 127.41473507 127.41473507-57.0530304 127.41473394-127.41473507-57.03658951-127.41473507-127.41473394-127.41473394z m38.66420679 166.09538162a54.66503168 54.66503168 0 1 1 16.02959473-38.6642068 54.32388835 54.32388835 0 0 1-16.02959473 38.66831758zM404.36126493 267.82610205L284.44344889 387.73980729 237.34931911 340.64156786a36.37485113 36.37485113 0 1 0-51.44267207 51.44267093l72.81546581 72.8195766a36.37485113 36.37485113 0 0 0 51.44267208 0l145.63504128-145.63504241a36.37485113 36.37485113 0 0 0-51.43856128-51.44267093z" fill="#707070" p-id="1463"></path></svg>