<?xml version="1.0" standalone="no"?><!DOCTYPE svg PUBLIC "-//W3C//DTD SVG 1.1//EN" "http://www.w3.org/Graphics/SVG/1.1/DTD/svg11.dtd"><svg t="1717577931603" class="icon" viewBox="0 0 1024 1024" version="1.1" xmlns="http://www.w3.org/2000/svg" p-id="1674" xmlns:xlink="http://www.w3.org/1999/xlink" width="200" height="200"><path d="M589.28393482 783.85303703a194.56910222 194.56910222 0 1 0 194.56910221-194.56910221H618.66995317c-16.33707259 0-29.360128 13.04894578-29.360128 29.360128V783.85303703zM783.85303703 537.89076502A245.96227201 245.96227201 0 1 1 537.89076502 783.85303703V618.66995317A80.62384355 80.62384355 0 0 1 618.64406282 537.89076502H783.85303703zM486.10923498 783.85303703a245.96227201 245.96227201 0 1 1-245.96227201-245.96227201h165.20897421A80.62384355 80.62384355 0 0 1 486.10923498 618.64406282V783.85303703z m-245.96227201-194.56910221a194.56910222 194.56910222 0 1 0 194.56910221 194.56910221V618.66995317c0-16.31118222-13.02305541-29.360128-29.360128-29.360128H240.14696297zM537.89076502 240.12107261A245.96227201 245.96227201 0 1 1 783.85303703 486.10923498H618.66995317A80.62384355 80.62384355 0 0 1 537.89076502 405.35593718V240.14696297z m245.96227201 194.59499257a194.56910222 194.56910222 0 1 0-194.56910221-194.56910221v165.20897421c0 16.31118222 13.02305541 29.360128 29.360128 29.360128H783.85303703zM434.71606518 240.14696297a194.56910222 194.56910222 0 1 0-194.56910221 194.56910221h165.20897421c16.33707259 0 29.360128-13.04894578 29.360128-29.360128V240.14696297zM240.14696297 486.10923498A245.96227201 245.96227201 0 1 1 486.10923498 240.14696297v165.20897421A80.62384355 80.62384355 0 0 1 405.35593718 486.10923498H240.14696297z" fill="#707070" p-id="1675"></path></svg>