<?xml version="1.0" standalone="no"?><!DOCTYPE svg PUBLIC "-//W3C//DTD SVG 1.1//EN" "http://www.w3.org/Graphics/SVG/1.1/DTD/svg11.dtd"><svg t="1717578738135" class="icon" viewBox="0 0 1024 1024" version="1.1" xmlns="http://www.w3.org/2000/svg" p-id="1796" xmlns:xlink="http://www.w3.org/1999/xlink" width="200" height="200"><path d="M468.87822222 78.27911111c51.88266667 0 100.80711111 20.70755555 137.55733333 58.25422222 37.20533333 38.00177778 57.68533333 88.51911111 57.68533334 142.44977778s-20.48 104.448-57.68533334 142.44977778c-36.864 37.54666667-85.67466667 58.25422222-137.55733333 58.25422222s-100.80711111-20.70755555-137.55733333-58.25422222c-37.20533333-38.00177778-57.68533333-88.51911111-57.68533334-142.44977778s20.48-104.448 57.68533334-142.44977778c36.75022222-37.66044445 85.56088889-58.25422222 137.55733333-58.25422222m0-72.81777778c-148.13866667 0-268.17422222 122.42488889-268.17422222 273.52177778s120.03555555 273.52177778 268.17422222 273.52177778S736.93866667 430.08 736.93866667 278.98311111 616.90311111 5.46133333 468.87822222 5.46133333z" fill="#707070" p-id="1797"></path><path d="M451.01511111 981.67466667h-316.30222222c-35.27111111 0-68.38044445-13.99466667-93.29777778-39.36711112C15.92888889 916.36622222 2.27555555 881.89155555 2.95822222 845.25511111c1.024-51.54133333 17.06666667-105.92711111 47.55911111-161.67822222 23.552-43.008 55.97866667-86.92622222 96.14222222-130.73066667 67.69777778-73.728 134.144-121.51466667 136.87466667-123.56266667l42.32533333 59.16444445c-3.41333333 2.50311111-246.784 179.42755555-250.19733333 358.17244445-0.34133333 16.95288889 5.91644445 32.768 17.63555556 44.71466666 11.03644445 11.264 25.71377778 17.52177778 41.30133333 17.52177778h316.30222222v72.81777778zM325.97333333 488.448l-21.16266666-29.58222222 21.16266666 29.58222222z" fill="#707070" p-id="1798"></path><path d="M498.57422222 551.02577778H439.18222222c-1.82044445 0-3.29955555 1.13777778-3.86844444 2.95822222L382.29333333 727.49511111c-1.82044445 6.03022222-0.22755555 12.51555555 4.096 16.95288889l76.68622222 78.27911111c1.13777778 1.13777778 2.50311111 1.70666667 3.86844445 1.70666667h3.64088889c1.36533333 0 2.73066667-0.56888889 3.86844444-1.70666667l76.68622222-78.27911111c4.32355555-4.43733333 5.91644445-10.92266667 4.096-16.95288889l-53.02044444-173.62488889c-0.34133333-1.70666667-1.93422222-2.84444445-3.64088889-2.84444444z m-29.696 36.18133333s0-0.11377778 0 0h6.71288889c0.45511111 0 0.79644445 0.79644445 0.91022222 1.93422222L488.33422222 705.42222222c0.45511111 3.98222222 0 8.41955555-0.91022222 11.37777778l-17.29422222 52.45155555c-0.22755555 0.79644445-0.56888889 1.13777778-0.91022223 1.13777778h-0.68266666c-0.34133333 0-0.56888889-0.34133333-0.91022222-1.13777778L450.33244445 716.8c-1.024-2.95822222-1.36533333-7.28177778-0.91022223-11.37777778l11.94666667-116.39466667c0.11377778-1.13777778 0.45511111-1.93422222 0.91022222-1.93422222l6.59911111 0.11377778c-0.11377778-0.11377778-0.11377778 0 0 0zM873.92711111 623.50222222H605.86666667c-20.13866667 0-36.40888889-16.27022222-36.40888889-36.40888889s16.27022222-36.40888889 36.40888889-36.40888888h268.06044444c20.13866667 0 36.40888889 16.27022222 36.40888889 36.40888888s-16.27022222 36.40888889-36.40888889 36.40888889zM935.25333333 801.10933333H605.86666667c-20.13866667 0-36.40888889-16.27022222-36.40888889-36.40888888s16.27022222-36.40888889 36.40888889-36.4088889H935.25333333c20.13866667 0 36.40888889 16.27022222 36.40888889 36.4088889s-16.27022222 36.40888889-36.40888889 36.40888888zM975.18933333 978.83022222H605.86666667c-20.13866667 0-36.40888889-16.27022222-36.40888889-36.40888889s16.27022222-36.40888889 36.40888889-36.40888888h369.32266666c20.13866667 0 36.40888889 16.27022222 36.40888889 36.40888888s-16.27022222 36.40888889-36.40888889 36.40888889z" fill="#707070" p-id="1799"></path></svg>