<?xml version="1.0" standalone="no"?><!DOCTYPE svg PUBLIC "-//W3C//DTD SVG 1.1//EN" "http://www.w3.org/Graphics/SVG/1.1/DTD/svg11.dtd"><svg t="1725097108883" class="icon" viewBox="0 0 1142 1024" version="1.1" xmlns="http://www.w3.org/2000/svg" p-id="1431" xmlns:xlink="http://www.w3.org/1999/xlink" width="223.046875" height="200"><path d="M854.879228 925.857077a47.318566 47.318566 0 0 1 5.575299 94.279741H287.342349a47.247088 47.247088 0 0 1-5.503821-94.208263l5.503821-0.357391zM996.834926 3.57391a141.88422 141.88422 0 0 1 141.88422 141.88422v567.536878a141.88422 141.88422 0 0 1-141.88422 141.88422H145.45813A141.88422 141.88422 0 0 1 3.57391 712.995008v-567.536878A141.88422 141.88422 0 0 1 145.45813 3.57391h851.376796z m0 94.565654H145.45813a47.390044 47.390044 0 0 0-47.318566 47.318566v567.536878a47.318566 47.318566 0 0 0 47.318566 47.318566h851.376796a47.247088 47.247088 0 0 0 47.247088-47.318566v-567.536878a47.318566 47.318566 0 0 0-47.247088-47.318566zM430.084307 192.99113a37.883444 37.883444 0 0 1 4.074257 0h-1.286607 3.145041a46.675262 46.675262 0 0 1 17.79807 5.861212l330.443702 189.202786 1.429564 0.929216 1.929911 1.286608-2.001389-1.286608 3.788344 2.573215a47.104131 47.104131 0 0 1 8.934775 66.045854 51.321345 51.321345 0 0 1-6.290082 7.147819l-1.429563 1.143652-2.78765 2.072867 0.500347-0.428869-2.573215 1.643999-1.215129 0.857738-331.087006 189.345742a47.604479 47.604479 0 0 1-18.298418 6.004169H429.226569a47.318566 47.318566 0 0 1-47.247088-47.318566V240.023783a46.889697 46.889697 0 0 1 3.430954-17.726592V221.582409a47.390044 47.390044 0 0 1 40.242224-28.591279h4.145735z m46.460828 128.660753v215.22085L664.747226 429.226569z" fill="#707070" p-id="1432"></path><path d="M287.342349 1023.996641a50.820998 50.820998 0 0 1-5.93269-101.356083l5.718256-0.357391h567.822791a50.892476 50.892476 0 0 1 5.932691 101.356083h-5.789734z m0-94.565654l-5.289386 0.357391a43.673178 43.673178 0 0 0 5.289386 87.060443h572.897744a43.673178 43.673178 0 0 0 38.312313-43.387265 43.673178 43.673178 0 0 0-43.673178-44.245004z m709.492577-70.977849H145.45813A145.601086 145.601086 0 0 1 0 712.995008v-567.536878A145.601086 145.601086 0 0 1 145.45813 0h851.376796a145.601086 145.601086 0 0 1 145.458129 145.45813v567.536878a145.601086 145.601086 0 0 1-145.458129 145.45813zM145.45813 7.14782A138.453266 138.453266 0 0 0 7.14782 145.45813v567.536878a138.453266 138.453266 0 0 0 138.31031 138.31031h851.376796a138.453266 138.453266 0 0 0 138.31031-138.31031v-567.536878A138.453266 138.453266 0 0 0 996.834926 7.14782z m851.376796 756.739664H145.45813a50.963954 50.963954 0 0 1-50.892476-50.892476v-567.536878a51.035432 51.035432 0 0 1 50.892476-50.892476h851.376796a50.963954 50.963954 0 0 1 50.820998 50.892476v567.536878a50.892476 50.892476 0 0 1-50.820998 50.892476zM145.45813 101.713473a43.816134 43.816134 0 0 0-43.744657 43.744657v567.536878a43.816134 43.816134 0 0 0 43.744657 43.744656h851.376796a43.744656 43.744656 0 0 0 43.673178-43.744656v-567.536878a43.744656 43.744656 0 0 0-43.673178-43.744657z m283.768439 567.608357a50.963954 50.963954 0 0 1-50.820998-50.892475V240.023783a50.034737 50.034737 0 0 1 3.716867-19.084678v-0.857739a50.606563 50.606563 0 0 1 42.886917-30.807102h10.364339a49.319955 49.319955 0 0 1 19.227635 6.361559L787.260854 385.98226l2.00139 1.286608 1.858433 1.215129a50.678041 50.678041 0 0 1 9.721035 71.478196 54.180473 54.180473 0 0 1-6.718951 7.14782l-4.002779 3.073562-2.644693 1.786955-1.215129 0.78626-331.015528 189.703134a50.678041 50.678041 0 0 1-19.656504 6.504515h-4.431648z m0.857738-472.971225h-4.074257a43.387265 43.387265 0 0 0-36.954227 26.589889l-0.42887 0.78626a44.245004 44.245004 0 0 0-3.073562 16.225551v378.47705a43.744656 43.744656 0 0 0 43.673178 43.744656h5.718256a42.886918 42.886918 0 0 0 16.725898-5.503821l331.515874-189.917568 1.786955-1.143651 4.431648-3.359475a46.961175 46.961175 0 0 0 5.718256-6.147125 43.673178 43.673178 0 0 0-8.219993-61.113858l-3.573909-2.358781-1.429564-0.929216-330.229267-189.488699a43.458743 43.458743 0 0 0-16.439986-5.503821h-2.716171z m42.886918 346.669252V315.43328L671.895045 429.226569z m7.14782-215.292327v202.9266L657.599406 429.226569z" fill="#707070" p-id="1433"></path></svg>