<?xml version="1.0" standalone="no"?><!DOCTYPE svg PUBLIC "-//W3C//DTD SVG 1.1//EN" "http://www.w3.org/Graphics/SVG/1.1/DTD/svg11.dtd"><svg t="1729849841554" class="icon" viewBox="0 0 1024 1024" version="1.1" xmlns="http://www.w3.org/2000/svg" p-id="986" xmlns:xlink="http://www.w3.org/1999/xlink" width="64" height="64"><path d="M361.54358391 1022.35876819c-92.12969971 0-184.25939943-35.12859054-254.5165805-105.3857716C38.75823312 848.70422629 1.64123181 758.56293737 1.64123181 662.45641609s37.11700133-186.24781022 105.3857716-254.51658052l121.9558615-121.95586149c28.50055458-28.50055458 66.9431631-44.40784087 107.3741824-44.40784086s78.87362782 15.90728628 107.3741824 44.40784086l29.16335818 29.16335819 96.76932488-96.76932489-32.47737615-32.47737615c-20.54691145-20.54691145-31.81457257-47.72185885-31.81457257-76.22241344 0-29.16335819 11.26766112-55.67550198 31.81457257-76.22241343 41.75662649-42.41943008 110.68820037-42.41943008 152.44482685 0l300.25002856 300.25002857c41.75662649 42.41943008 41.75662649 110.68820037 0 152.44482686-20.54691145 20.54691145-47.72185885 31.81457257-76.22241342 31.81457256-29.16335819 0-55.67550198-11.26766112-76.22241344-31.81457256l-32.47737616-32.47737615-96.76932487 96.76932487 29.16335817 29.16335819c58.98951997 58.98951997 58.98951997 155.75884483 0 215.41116839l-121.95586148 121.9558615C545.80298335 987.23017765 453.67328364 1022.35876819 361.54358391 1022.35876819zM337.0198509 327.74060057c-17.89569707 0-34.46578693 6.62803595-46.39625165 19.22130426L168.00493417 468.91776631c-51.69868042 51.69868042-80.19923501 120.6302543-80.199235 193.53864978s28.50055458 141.83996933 80.199235 193.53864974c106.71137881 106.71137881 280.36592071 106.71137881 387.07729952 0l121.95586148-121.95586148c25.84934021-25.84934021 25.84934021-67.6059667 0-93.45530691l-59.65232355-59.65232355c-16.57008987-16.57008987-16.57008987-44.40784087 0-60.97793074l157.74725561-157.74725563c16.57008987-16.57008987 44.40784087-16.57008987 60.97793075 0l62.96634154 62.96634153c5.30242877 5.30242877 11.93046471 6.62803595 15.24448269 6.62803594 3.31401797 0 9.94205392-0.66280359 15.24448268-6.62803594 8.61644674-8.61644674 8.61644674-22.53532223 0-30.48896537L629.31623632 94.43373511c-5.30242877-5.30242877-11.93046471-6.62803595-15.24448269-6.62803594s-9.94205392 0.66280359-15.24448268 6.62803594c-5.30242877 5.30242877-6.62803595 11.93046471-6.62803594 15.24448268s0.66280359 9.94205392 6.62803594 15.24448269l62.96634153 62.96634154c16.57008987 16.57008987 16.57008987 44.40784087 0 60.97793075L504.04635685 405.9514248c-16.57008987 16.57008987-44.40784087 16.57008987-60.97793074 0l-59.65232355-59.65232356c-12.5932683-11.93046471-29.16335819-18.55850066-46.39625166-18.55850067z" fill="#707070" p-id="987"></path><path d="M261.46024107 804.95918901c-11.26766112 0-21.87251863-3.97682157-30.48896537-12.5932683-16.57008987-16.57008987-16.57008987-44.40784087 0-60.97793075l189.56182818-189.56182818c16.57008987-16.57008987 44.40784087-16.57008987 60.97793075 0 16.57008987 16.57008987 16.57008987 44.40784087 0 60.97793075l-189.5618282 189.56182818c-8.61644674 8.61644674-19.88410785 12.5932683-30.48896536 12.5932683z" fill="#707070" p-id="988"></path></svg>