<?xml version="1.0" standalone="no"?><!DOCTYPE svg PUBLIC "-//W3C//DTD SVG 1.1//EN" "http://www.w3.org/Graphics/SVG/1.1/DTD/svg11.dtd"><svg t="1729850240603" class="icon" viewBox="0 0 1024 1024" version="1.1" xmlns="http://www.w3.org/2000/svg" p-id="1109" xmlns:xlink="http://www.w3.org/1999/xlink" width="64" height="64"><path d="M930.70222222 56.88888889c19.93728 0 36.08348445 15.94595555 36.40888889 35.80586666V538.16888889h-81.92V400.49777778H138.80888889v484.69333333h373.19111111v81.92H93.29777778c-19.93728 0-36.08348445-15.94595555-36.40888889-35.80586666V93.29777778c0-19.93728 15.94595555-36.08348445 35.80586666-36.40888889H930.70222222z m-45.51111111 81.92H138.80888889v179.76888889h746.38222222V138.80888889z" fill="#707070" p-id="1110"></path><path d="M604.47857778 1008.07111111c1.36988445 0 2.73863111-0.13653333 4.10737777-0.34133333L723.70176 987.59111111c1.36874667-0.27306667 2.66922667-0.88746667 3.62723555-1.91146666l290.11854223-289.3824a6.78684445 6.78684445 0 0 0 0-9.6256l-113.74819556-113.52746667c-1.30048-1.29706667-3.01169778-1.97973333-4.85831111-1.97973333-1.84888889 0-3.56010667 0.68266667-4.85944889 1.97973333L603.86304 862.52657778c-1.02627555 1.024-1.64181333 2.2528-1.91601778 3.61813333L581.75715555 980.96924445c-1.30048 7.5776 1.02627555 14.9504 6.43299556 20.34346666 4.51697778 4.36906667 10.19790222 6.7584 16.28956444 6.7584z m46.12892444-119.05706666L898.83989333 641.47911111l50.16689778 50.03946667-248.23239111 247.53493333-60.84266667 10.71786667 10.67576889-60.75733333z" fill="#707070" p-id="1111"></path><path d="M651.94666667 187.73333333h128.56888888a9.10222222 9.10222222 0 0 1 9.10222223 9.10222222v54.61333334a9.10222222 9.10222222 0 0 1-9.10222223 9.10222222H651.94666667a9.10222222 9.10222222 0 0 1-9.10222222-9.10222222v-54.61333334a9.10222222 9.10222222 0 0 1 9.10222222-9.10222222z" fill="#707070" p-id="1112"></path></svg>