<?xml version="1.0" standalone="no"?><!DOCTYPE svg PUBLIC "-//W3C//DTD SVG 1.1//EN" "http://www.w3.org/Graphics/SVG/1.1/DTD/svg11.dtd"><svg t="1729853561072" class="icon" viewBox="0 0 1024 1024" version="1.1" xmlns="http://www.w3.org/2000/svg" p-id="1177" xmlns:xlink="http://www.w3.org/1999/xlink" width="64" height="64"><path d="M512 2.27555555c283.98933333 0 509.72444445 225.73511111 509.72444445 509.72444445s-225.73511111 509.72444445-509.72444445 509.72444445-509.72444445-225.73511111-509.72444445-509.72444445 225.73511111-509.72444445 509.72444445-509.72444445z m0 72.81777778C271.70133333 75.09333333 75.09333333 271.70133333 75.09333333 512s196.608 436.90666667 436.90666667 436.90666667 436.90666667-196.608 436.90666667-436.90666667-196.608-436.90666667-436.90666667-436.90666667zM431.90044445 308.11022222c87.38133333-29.12711111 182.04444445-7.28177778 240.29866666 58.25422223h21.84533334c58.25422222 0 101.94488889 43.69066667 109.22666666 94.6631111 7.28177778 58.25422222-29.12711111 109.22666667-87.38133333 116.50844445-29.12711111 87.38133333-109.22666667 145.63555555-203.88977778 145.63555555h-21.84533333c-29.12711111 50.97244445-87.38133333 80.09955555-152.91733334 72.81777778s-101.94488889-50.97244445-116.50844444-116.50844444c-7.28177778-58.25422222 21.84533333-116.50844445 72.81777778-145.63555556V512c0-87.38133333 58.25422222-174.76266667 138.35377778-203.88977778zM366.36444445 584.81777778c-43.69066667 0-72.81777778 29.12711111-72.81777778 72.81777777s29.12711111 72.81777778 72.81777778 72.81777778 72.81777778-29.12711111 72.81777777-72.81777778-29.12711111-72.81777778-72.81777777-72.81777777z m247.58044444-182.04444445c-43.69066667-36.40888889-109.22666667-50.97244445-160.19911111-21.84533333S366.36444445 453.74577778 366.36444445 512c80.09955555 0 145.63555555 65.536 145.63555555 145.63555555 58.25422222 0 109.22666667-36.40888889 131.072-87.38133333-29.12711111-14.56355555-50.97244445-43.69066667-58.25422222-72.81777777-7.28177778-36.40888889 7.28177778-65.536 29.12711111-94.66311112z m80.09955556 36.40888889c-21.84533333 0-36.40888889 14.56355555-36.4088889 36.40888889s14.56355555 36.40888889 36.4088889 36.40888889 36.40888889-14.56355555 36.40888888-36.40888889-14.56355555-36.40888889-36.40888888-36.40888889z" fill="#707070" p-id="1178"></path></svg>