<?xml version="1.0" standalone="no"?><!DOCTYPE svg PUBLIC "-//W3C//DTD SVG 1.1//EN" "http://www.w3.org/Graphics/SVG/1.1/DTD/svg11.dtd"><svg t="1725976156463" class="icon" viewBox="0 0 1024 1024" version="1.1" xmlns="http://www.w3.org/2000/svg" p-id="3349" xmlns:xlink="http://www.w3.org/1999/xlink" width="200" height="200"><path d="M341.333333 938.666667a213.333333 213.333333 0 0 1-213.333333-213.333334V256a170.666667 170.666667 0 0 1 170.666667-170.666667h124.245333v-0.213333h306.133333v0.298667l4.821334 0.128A170.666667 170.666667 0 0 1 896 256v554.666667a128 128 0 0 1-128 128H341.333333z m469.333334-213.333334H370.858667C330.325333 725.333333 298.666667 754.730667 298.666667 789.333333c0 32.682667 28.245333 60.714667 65.536 63.744l6.656 0.256H768a42.666667 42.666667 0 0 0 42.368-37.674666L810.666667 810.666667v-85.333334zM422.912 170.666667H298.666667a85.333333 85.333333 0 0 0-85.12 78.933333L213.333333 256v469.333333c0 10.709333 1.28 21.12 3.797334 31.061334 15.274667-64.554667 74.496-112.682667 145.450666-116.181334L370.858667 640H810.666667V256a85.333333 85.333333 0 0 0-78.933334-85.12l-2.688-0.085333v183.253333a64 64 0 0 1-1.493333 13.781333l-1.877333 6.698667a64 64 0 0 1-81.066667 40.192l-54.954667-18.56a42.666667 42.666667 0 0 0-27.306666 0l-54.954667 18.56a64 64 0 0 1-84.48-60.672V170.666667z m220.8 0h-135.466667V324.266667l26.794667-9.002667a128 128 0 0 1 72.96-2.645333l8.96 2.645333 26.752 9.002667V170.666667z" fill="#5D6E7F" p-id="3350"></path></svg>