<?xml version="1.0" standalone="no"?><!DOCTYPE svg PUBLIC "-//W3C//DTD SVG 1.1//EN" "http://www.w3.org/Graphics/SVG/1.1/DTD/svg11.dtd"><svg t="1726025356971" class="icon" viewBox="0 0 1024 1024" version="1.1" xmlns="http://www.w3.org/2000/svg" p-id="2042" xmlns:xlink="http://www.w3.org/1999/xlink" width="200" height="200"><path d="M835.6 8.5H197.7c-64.4 0-116.8 52.4-116.8 116.8v764.5c0 64.4 52.4 116.8 116.8 116.8h637.9c64.4 0 116.8-52.4 116.8-116.8V125.3C952.4 60.9 900 8.5 835.6 8.5z m53.1 881.4c0 29.3-23.8 53.1-53.1 53.1H197.7c-29.3 0-53.1-23.8-53.1-53.1V125.3c0-29.3 23.8-53.1 53.1-53.1h637.9c29.3 0 53.1 23.8 53.1 53.1v764.6z" p-id="2043"></path><path d="M740 472.4H293.2c-17.6 0-31.9 14.3-31.9 31.9 0 17.6 14.3 31.9 31.9 31.9H740c17.6 0 31.9-14.3 31.9-31.9-0.1-17.7-14.3-31.9-31.9-31.9zM293.2 281.2h436.1c17.6 0 31.9-14.3 31.9-31.9s-14.3-31.9-31.9-31.9H293.2c-17.6 0-31.9 14.3-31.9 31.9s14.4 31.9 31.9 31.9zM474.5 727.2H293.2c-17.6 0-31.9 14.3-31.9 31.9 0 17.6 14.3 31.9 31.9 31.9h181.3c17.6 0 31.9-14.3 31.9-31.9 0-17.6-14.3-31.9-31.9-31.9z" p-id="2044"></path></svg>