<?xml version="1.0" standalone="no"?><!DOCTYPE svg PUBLIC "-//W3C//DTD SVG 1.1//EN" "http://www.w3.org/Graphics/SVG/1.1/DTD/svg11.dtd"><svg t="1725097510658" class="icon" viewBox="0 0 1024 1024" version="1.1" xmlns="http://www.w3.org/2000/svg" p-id="1501" xmlns:xlink="http://www.w3.org/1999/xlink" width="200" height="200"><path d="M943.16050174 943.16050174c-3.80435751 0-8.24277462-1.26811918-12.04713092-3.17029793l-66.57625415-34.87327603c-47.55446655 24.72832266-100.81547059 38.04357396-155.97865218 38.04357396-171.19608103 0-310.68918518-124.90973366-310.68918518-278.98620707s139.49310415-278.98620708 310.68918518-278.98620709 310.68918518 124.90973366 310.68918518 278.98620709c0 61.50377745-22.82614389 121.73943572-64.67407538 170.56202265l13.3152501 79.25744466c1.90217876 9.51089379-2.53623835 19.02178638-10.14495217 24.72832266-4.4384171 2.53623835-9.51089379 4.4384171-14.58337048 4.4384171z m-234.60203725-507.24764968c-143.29746045 0-259.9644207 102.08358977-259.9644207 228.26144261s116.66695904 228.26144259 259.9644207 228.26144259c51.35882407 0 100.81547059-13.31525132 143.29746045-38.04357396 7.60871504-4.4384171 17.11960762-4.4384171 24.72832267-0.6340596l32.97109726 17.11960763-6.97465544-40.57981111c-1.26811918-7.60871504 1.26811918-15.85148845 6.34059586-21.55802594 38.04357396-40.57981232 59.60159869-92.57269597 59.60159869-145.19963921 0-125.54379325-116.66695904-227.62738301-259.96441949-227.62738301z" fill="#707070" p-id="1502"></path><path d="M594.42774258 593.793683m-38.04357275 0a38.04357396 38.04357396 0 1 0 76.08714672 0 38.04357396 38.04357396 0 1 0-76.08714672 0Z" fill="#707070" p-id="1503"></path><path d="M822.68918518 593.793683m-38.04357397 0a38.04357396 38.04357396 0 1 0 76.08714795 0 38.04357396 38.04357396 0 1 0-76.08714795 0Z" fill="#707070" p-id="1504"></path><path d="M245.69498465 308.46688127m-44.38416983 0a44.38416983 44.38416983 0 1 0 88.76833845 0 44.38416983 44.38416983 0 1 0-88.76833845 0Z" fill="#707070" p-id="1505"></path><path d="M512 308.46688127m-44.38416983 0a44.38416983 44.38416983 0 1 0 88.76833966 0 44.38416983 44.38416983 0 1 0-88.76833966 0Z" fill="#707070" p-id="1506"></path><path d="M92.25257082 751.67451394c-5.07247669 0-10.77901297-1.90217876-15.21743007-5.07247669-7.60871504-5.70653628-11.41307255-15.21743007-10.14495339-24.72832266l17.11960883-98.91329183C32.65097091 563.99288366 4.75235033 491.07603487 4.75235033 416.2570061 4.75235033 231.11161415 172.77813465 80.83949826 378.84749172 80.83949826c98.27923225 0 190.85192821 33.60515686 261.23253987 95.7429939 71.01467124 62.13783703 110.96042276 145.19963921 112.86260152 234.60203725 0 6.97465546-2.53623835 13.9493109-7.60871504 19.02178759s-12.04713214 7.60871504-19.02178637 6.97465423c-6.34059586-0.63405958-12.04713214-0.63405958-17.11960761-0.63405958-143.29746045 0-259.9644207 102.08358977-259.96442072 228.2614426 0 17.11960762 2.53623835 34.87327604 6.97465546 51.99288365 1.90217876 6.97465546 0.63405958 14.58337049-3.17029793 20.92396636s-10.77901297 10.14495338-17.75366842 10.77901175c-18.38772679 2.53623835-36.77545479 3.80435751-55.16318159 3.80435752-67.84437331 0-133.15250828-16.48554803-190.85192821-46.92040697l-83.69586176 44.38416862c-5.07247669 0.63405958-9.51089379 1.90217876-13.3152501 1.90217876z m95.74299268-101.44952897c4.4384171 0 8.87683421 1.26811918 12.68119173 3.17029673 58.9675391 34.23921645 128.71409118 50.72476448 199.72876242 46.28634858-1.90217876-12.04713214-2.53623835-24.09426307-2.53623834-36.14139521 0-151.54023507 135.05468704-275.18184957 302.44641056-278.98620707-17.75366721-142.02934128-155.97865218-253.62382484-321.46819815-253.62382484-178.17073649 0-323.37037691 127.445972-323.3703757 284.69274335 0 65.94219455 26.63050141 130.61626994 74.18496796 181.34103443 5.70653628 5.70653628 7.60871504 13.9493109 6.34059586 21.55802593l-10.14495338 60.86971787 50.7247657-26.63050263c3.80435751-1.26811918 7.60871504-2.53623835 11.41307134-2.53623714z" fill="#707070" p-id="1507"></path></svg>