<?xml version="1.0" standalone="no"?><!DOCTYPE svg PUBLIC "-//W3C//DTD SVG 1.1//EN" "http://www.w3.org/Graphics/SVG/1.1/DTD/svg11.dtd"><svg t="1725098013599" class="icon" viewBox="0 0 1024 1024" version="1.1" xmlns="http://www.w3.org/2000/svg" p-id="1579" xmlns:xlink="http://www.w3.org/1999/xlink" width="200" height="200"><path d="M987.4572544 968.18196053l-44.97568533-44.9756864c51.400784-57.82588267 51.400784-147.7772544-6.42509867-205.60313706-32.12549013-32.12549013-70.67607893-44.9756864-109.22666667-44.9756864s-77.10117653 12.85019627-109.22666666 44.9756864c-57.82588267 57.82588267-57.82588267 154.20235307 0 218.45333333 32.12549013 32.12549013 70.67607893 44.9756864 109.22666666 44.9756864 32.12549013 0 70.67607893-12.85019627 96.3764704-38.55058773l44.9756864 44.97568533c6.4250976 6.4250976 6.4250976 6.4250976 12.85019627 6.42509867s6.4250976 0 12.85019627-6.42509867c0 0 0-12.85019627-6.42509867-19.27529387z m-250.57882347-51.400784c-51.400784-51.400784-51.400784-128.50196053 0-179.9027456 25.70039253-25.70039253 57.82588267-38.55058773 89.9513728-38.55058773s64.25098027 12.85019627 89.9513728 38.55058773c51.400784 51.400784 51.400784 128.50196053 0 179.9027456-25.70039253 19.27529387-57.82588267 32.12549013-89.9513728 32.12549014s-64.25098027-12.85019627-89.9513728-32.12549014z" fill="#707070" p-id="1580"></path><path d="M981.0321568 1013.15764693c-6.4250976 0-19.27529387-6.4250976-25.70039253-12.85019626l-32.12549014-32.12549014c-64.25098027 44.9756864-160.62745067 38.55058773-218.45333333-19.27529386-64.25098027-64.25098027-64.25098027-179.9027456 0-244.15372587s179.9027456-64.25098027 244.15372587 0c57.82588267 57.82588267 64.25098027 147.7772544 19.27529386 218.45333333l32.12549014 32.12549014c6.4250976 6.4250976 12.85019627 12.85019627 12.85019626 25.70039253 0 6.4250976-6.4250976 19.27529387-12.85019626 25.70039253-6.4250976 0-12.85019627 6.4250976-19.27529387 6.4250976z m-154.20235307-295.55450986c-25.70039253 0-57.82588267 12.85019627-77.10117653 32.12549013s-32.12549013 44.9756864-32.12549013 77.10117653c0 25.70039253 12.85019627 57.82588267 32.12549013 77.10117654 38.55058773 38.55058773 109.22666667 38.55058773 147.77725547 0 25.70039253-19.27529387 32.12549013-51.400784 32.12549013-77.10117654s-12.85019627-57.82588267-32.12549013-77.10117653-44.9756864-32.12549013-70.67607894-32.12549013z" fill="#707070" p-id="1581"></path><path d="M248.57098027 351.37254933h134.9270592c19.27529387 0 32.12549013-12.85019627 32.12549013-32.12549013S402.77333333 287.12156907 389.92313707 287.12156907H248.57098027c-12.85019627 0-25.70039253 12.85019627-25.70039254 32.12549013s12.85019627 32.12549013 25.70039254 32.12549013z" fill="#707070" p-id="1582"></path><path d="M325.6721568 357.79764693H248.57098027c-19.27529387 0-32.12549013-19.27529387-32.12549014-38.55058773s12.85019627-38.55058773 32.12549014-38.5505888h141.3521568c19.27529387 0 32.12549013 19.27529387 32.12549013 38.5505888s-12.85019627 38.55058773-32.12549013 38.55058773h-64.25098027z m-77.10117653-64.25098026c-12.85019627 0-19.27529387 12.85019627-19.27529387 25.70039253s12.85019627 25.70039253 19.27529387 25.70039147h141.3521568c12.85019627 0 19.27529387-12.85019627 19.27529386-25.70039147s-12.85019627-25.70039253-19.27529386-25.70039253H248.57098027z" fill="#707070" p-id="1583"></path><path d="M113.64392107 94.3686272h411.2062752v186.3278432c0 38.55058773 38.55058773 77.10117653 83.52627413 77.10117653h192.75294187v231.3035296h64.25098026V299.97176427c0-19.27529387-6.4250976-38.55058773-25.70039253-51.400784l-205.60313707-192.7529408c-12.85019627-19.27529387-32.12549013-25.70039253-51.400784-25.70039254H113.64392107C68.66823573 30.11764693 30.11764693 62.24313707 30.11764693 100.79372587v815.98745066c0 44.9756864 38.55058773 77.10117653 83.52627414 77.10117654h514.0078432v-64.25098027H107.21882347M589.10117653 100.79372587l205.60313707 192.7529408H595.52627413c-6.4250976 0-6.4250976-6.4250976-6.4250976-12.85019627V100.79372587c-6.4250976-6.4250976 0-6.4250976 0 0z" fill="#707070" p-id="1584"></path><path d="M627.65176427 1000.30745067h-514.0078432c-44.9756864 0-89.9513728-38.55058773-89.95137174-83.52627414V100.79372587c0-19.27529387 6.4250976-44.9756864 25.70039147-57.82588267s38.55058773-25.70039253 64.25098027-19.27529387h469.03215786c25.70039253 0 44.9756864 6.4250976 64.25098027 25.70039147l205.60313707 192.75294187c12.85019627 12.85019627 25.70039253 38.55058773 25.70039146 57.8258816v295.55450986h-83.52627413V364.2227456H595.52627413c-44.9756864 0-89.9513728-38.55058773-89.95137173-83.5262752V100.79372587H113.64392107c-6.4250976 0-6.4250976 0-6.4250976 6.4250976v815.98745066c0 6.4250976 0 6.4250976 6.4250976 6.42509867h520.43294186v70.67607787h-6.42509866zM595.52627413 351.37254933h192.75294187l12.85019627-6.42509866v231.3035296h57.8258816V299.97176427c0-19.27529387-6.4250976-32.12549013-19.27529387-44.97568534l-205.60313707-192.75294186c-12.85019627-19.27529387-32.12549013-25.70039253-51.400784-25.70039147H107.21882347c-19.27529387 0-32.12549013 6.4250976-44.9756864 19.27529387-19.27529387 12.85019627-25.70039253 32.12549013-25.70039147 44.9756864v815.98745066c0 38.55058773 32.12549013 70.67607893 77.10117547 70.67607787h507.5827456v-51.400784H113.64392107c-12.85019627 0-19.27529387-6.4250976-19.27529387-19.27529387V100.79372587c0-6.4250976 6.4250976-12.85019627 19.27529387-12.85019627h417.6313728l-6.4250976 6.4250976v6.42509867m263.42901973 199.1780384h-192.75294187c-6.4250976 0-12.85019627-12.85019627-12.8501952-19.27529387V100.79372587v-25.70039254l12.8501952 12.85019627 6.42509867 6.4250976L801.12941227 293.54666667c-6.4250976 6.4250976-6.4250976 6.4250976-12.85019627 6.4250976z m-192.75294187-186.3278432V287.12156907h179.9027456L595.52627413 113.64392107z" fill="#707070" p-id="1585"></path><path d="M576.25098027 672.62745067h-321.25490134c-19.27529387 0-32.12549013 12.85019627-32.1254912 32.12549013s12.85019627 32.12549013 32.1254912 32.12549013h314.82980374c25.70039253 0 38.55058773-12.85019627 38.55058773-32.12549013s-12.85019627-32.12549013-32.12549013-32.12549013z" fill="#707070" p-id="1586"></path><path d="M576.25098027 743.3035296h-321.25490134c-19.27529387 0-38.55058773-19.27529387-38.5505888-38.5505888s19.27529387-38.55058773 38.5505888-38.55058773h321.25490134c19.27529387 0 38.55058773 19.27529387 38.5505888 38.55058773s-19.27529387 38.55058773-38.5505888 38.5505888z m-321.25490134-64.25098027c-12.85019627 0-25.70039253 12.85019627-25.70039253 25.70039147s12.85019627 25.70039253 25.70039253 25.70039253h321.25490134c12.85019627 0 25.70039253-12.85019627 25.70039253-25.70039253s-12.85019627-25.70039253-25.70039253-25.70039147h-321.25490134z" fill="#707070" p-id="1587"></path><path d="M634.07686293 479.87450987H261.42117653c-19.27529387 0-38.55058773 12.85019627-38.5505888 32.12549013s19.27529387 32.12549013 38.5505888 32.12549013H640.50196053c12.85019627 0 32.12549013-12.85019627 32.12549014-32.12549013s-19.27529387-32.12549013-38.55058774-32.12549013z" fill="#707070" p-id="1588"></path><path d="M634.07686293 550.55058773H261.42117653c-25.70039253 0-44.9756864-19.27529387-44.9756864-38.55058773s19.27529387-38.55058773 44.9756864-38.55058773H640.50196053c25.70039253 0 44.9756864 19.27529387 44.9756864 38.55058773-6.4250976 19.27529387-25.70039253 38.55058773-51.400784 38.55058773z m-372.6556864-64.25098026c-12.85019627 0-32.12549013 12.85019627-32.12549013 25.70039253s12.85019627 25.70039253 32.12549013 25.70039253h372.6556864c12.85019627 0 32.12549013-12.85019627 32.12549014-25.70039253s-19.27529387-25.70039253-32.12549014-25.70039253H261.42117653z" fill="#707070" p-id="1589"></path></svg>