<?xml version="1.0" standalone="no"?><!DOCTYPE svg PUBLIC "-//W3C//DTD SVG 1.1//EN" "http://www.w3.org/Graphics/SVG/1.1/DTD/svg11.dtd"><svg t="1717137256584" class="icon" viewBox="0 0 1024 1024" version="1.1" xmlns="http://www.w3.org/2000/svg" p-id="1335" xmlns:xlink="http://www.w3.org/1999/xlink" width="200" height="200"><path d="M719.75822222 512c-46.76266667 0-84.76444445 38.00177778-84.76444444 84.76444445 0 31.40266667 17.06666667 58.70933333 42.32533333 73.38666666v119.58044444l0.34133334 4.89244445c2.50311111 21.04888889 20.36622222 37.43288889 42.09777777 37.43288889 23.43822222 0 42.32533333-19.00088889 42.32533333-42.32533334V670.15111111c25.25866667-14.67733333 42.32533333-42.09777778 42.32533334-73.38666666 0.11377778-46.87644445-37.888-84.76444445-84.65066667-84.76444445z" fill="#707070" p-id="1336"></path><path d="M974.50666667 428.48711111l-25.25866667-0.34133333c-4.32355555 0-16.27022222-0.79644445-30.37866667-2.84444445-23.66577778-3.41333333-47.44533333-9.32977778-69.51822222-18.09066666-19.34222222-7.73688889-37.54666667-16.27022222-54.15822222-25.14488889l-12.17422222-6.71288889c-10.58133333-6.03022222-21.504-12.97066667-20.13866667-11.83288889l-3.64088889-2.84444445-15.24622222-10.6951111c-14.56355555-10.24-33.90577778-10.24-48.58311111 0l-15.24622223 10.6951111-19.00088888 11.8328889c-15.92888889 9.32977778-33.90577778 18.65955555-53.81688889 27.30666666-5.68888889 2.50311111-11.49155555 4.89244445-17.29422223 7.28177778-32.19911111 12.288-66.56 19.456-101.376 21.04888889l-23.77955555 0.22755555c-23.21066667 0.22755555-41.87022222 19.11466667-41.87022222 42.32533334v249.62844444c0 138.80888889 173.28355555 300.032 296.39111111 300.032 123.10755555 0 296.61866667-161.22311111 296.96-299.91822222V470.92622222c0.11377778-23.21066667-18.65955555-42.09777778-41.87022222-42.43911111z m-42.78044445 292.06755556c-0.22755555 90.45333333-134.59911111 215.26755555-212.19555555 215.26755555l-6.25777778-0.22755555c-78.27911111-6.25777778-205.36888889-126.86222222-205.36888889-215.04V511.88622222l16.95288889-1.70666667c33.22311111-4.20977778 65.19466667-12.17422222 96.02844444-24.0071111 7.39555555-2.95822222 13.99466667-5.68888889 20.59377778-8.64711112 20.02488889-8.76088889 45.85244445-22.528 63.82933334-32.54044444l14.44977777-8.30577778 2.95822223 1.82044444c21.504 13.42577778 58.368 32.88177778 95.11822222 47.44533334l11.37777778 4.32355556c34.24711111 12.288 68.38044445 19.00088889 95.232 21.504l7.05422222 0.56888888v208.21333334zM762.88 299.80444445c21.04888889-2.50311111 37.43288889-20.36622222 37.43288889-42.09777778 0-23.43822222-19.00088889-42.32533333-42.32533334-42.32533334H253.61066667l-4.89244445 0.34133334c-21.04888889 2.50311111-37.43288889 20.36622222-37.43288889 42.09777778 0 23.43822222 19.00088889 42.32533333 42.32533334 42.32533333h504.37688888l4.89244445-0.34133333z" fill="#707070" p-id="1337"></path><path d="M1016.26311111 206.16533333C1011.48444445 93.41155555 918.528 3.41333333 804.52266667 3.41333333H211.17155555l-9.216 0.22755556c-112.75377778 4.77866667-202.752 97.73511111-202.752 211.74044444v593.35111112l0.22755556 9.216c4.89244445 112.64 97.73511111 202.63822222 211.74044444 202.63822222h200.2488889l4.89244444-0.34133334c21.04888889-2.50311111 37.43288889-20.36622222 37.43288889-42.09777778 0-23.43822222-19.00088889-42.32533333-42.43911111-42.32533333h-200.24888889l-7.50933333-0.22755555c-66.78755555-3.86844445-119.69422222-59.16444445-119.69422223-126.976V215.26755555l0.22755556-7.50933333c3.86844445-66.78755555 59.16444445-119.69422222 126.976-119.69422222H804.40888889l7.50933333 0.22755555c66.78755555 3.86844445 119.69422222 59.16444445 119.69422223 126.976v92.61511112l0.34133333 4.89244444c2.50311111 21.04888889 20.36622222 37.43288889 42.09777777 37.43288889 23.43822222 0 42.32533333-19.00088889 42.32533334-42.32533333v-92.61511112l-0.11377778-9.10222222z" fill="#707070" p-id="1338"></path><path d="M296.61866667 511.65866667c21.04888889-2.50311111 37.43288889-20.36622222 37.43288888-42.09777778 0-23.43822222-19.00088889-42.32533333-42.32533333-42.32533334h-38.11555555l-4.89244445 0.34133334c-21.04888889 2.50311111-37.43288889 20.36622222-37.43288889 42.09777778 0 23.43822222 19.00088889 42.32533333 42.32533334 42.32533333h38.11555555l4.89244445-0.34133333zM211.17155555 681.52888889c0 21.73155555 16.384 39.59466667 37.4328889 42.09777778l2.84444444 0.11377778 2.84444444-0.11377778c21.04888889-2.50311111 37.43288889-20.36622222 37.43288889-42.09777778 0-23.43822222-19.00088889-42.32533333-42.32533333-42.32533334l2.16177778 0.11377778-2.84444445 0.11377778c-21.16266667 2.38933333-37.54666667 20.36622222-37.54666667 42.09777778z" fill="#707070" p-id="1339"></path></svg>